<?xml version="1.0" encoding="UTF-8"?>
<svg id="Layer_1" data-name="Layer 1" xmlns="http://www.w3.org/2000/svg" xmlns:xlink="http://www.w3.org/1999/xlink" viewBox="0 0 1080 1080">
  <defs>
    <style>
      .cls-1 {
        fill: url(#linear-gradient);
      }

      .cls-2 {
        fill: #231f20;
        stroke: #fff;
        stroke-miterlimit: 10;
        stroke-width: 2px;
      }

      .cls-3 {
        fill: url(#linear-gradient-8);
      }

      .cls-4 {
        fill: url(#linear-gradient-9);
      }

      .cls-5 {
        fill: url(#linear-gradient-3);
      }

      .cls-6 {
        fill: url(#linear-gradient-4);
      }

      .cls-7 {
        fill: url(#linear-gradient-2);
      }

      .cls-8 {
        fill: url(#linear-gradient-6);
      }

      .cls-9 {
        fill: url(#linear-gradient-7);
      }

      .cls-10 {
        fill: url(#linear-gradient-5);
      }

      .cls-11 {
        fill: url(#linear-gradient-14);
      }

      .cls-12 {
        fill: url(#linear-gradient-15);
      }

      .cls-13 {
        fill: url(#linear-gradient-16);
      }

      .cls-14 {
        fill: url(#linear-gradient-13);
      }

      .cls-15 {
        fill: url(#linear-gradient-12);
      }

      .cls-16 {
        fill: url(#linear-gradient-10);
      }

      .cls-17 {
        fill: url(#linear-gradient-11);
      }
    </style>
    <linearGradient id="linear-gradient" x1="292.53" y1="564.23" x2="340.96" y2="515.8" gradientUnits="userSpaceOnUse">
      <stop offset="0" stop-color="#a97b2c"/>
      <stop offset=".29" stop-color="#d6a747"/>
      <stop offset=".53" stop-color="#e0be88"/>
      <stop offset=".79" stop-color="#f9d678"/>
      <stop offset="1" stop-color="#976c29"/>
    </linearGradient>
    <linearGradient id="linear-gradient-2" x1="265.73" y1="489.02" x2="367.68" y2="590.98" xlink:href="#linear-gradient"/>
    <linearGradient id="linear-gradient-3" x1="916.51" y1="674.72" x2="972.12" y2="674.72" gradientTransform="translate(-516.26 -134.72)" xlink:href="#linear-gradient"/>
    <linearGradient id="linear-gradient-4" x1="983.91" y1="674.72" x2="1037.69" y2="674.72" gradientTransform="translate(-516.26 -134.72)" xlink:href="#linear-gradient"/>
    <linearGradient id="linear-gradient-5" x1="1050.85" y1="674.89" x2="1097.65" y2="674.89" gradientTransform="translate(-516.26 -134.72)" xlink:href="#linear-gradient"/>
    <linearGradient id="linear-gradient-6" x1="1103.94" y1="674.89" x2="1167.56" y2="674.89" gradientTransform="translate(-516.26 -134.72)" xlink:href="#linear-gradient"/>
    <linearGradient id="linear-gradient-7" x1="1177.06" y1="674.89" x2="1231.29" y2="674.89" gradientTransform="translate(-516.26 -134.72)" xlink:href="#linear-gradient"/>
    <linearGradient id="linear-gradient-8" x1="1247.31" y1="674.89" x2="1263.79" y2="674.89" gradientTransform="translate(-516.26 -134.72)" xlink:href="#linear-gradient"/>
    <linearGradient id="linear-gradient-9" x1="1274.09" y1="674.89" x2="1337.71" y2="674.89" gradientTransform="translate(-516.26 -134.72)" xlink:href="#linear-gradient"/>
    <linearGradient id="linear-gradient-10" x1="1011.53" y1="797.22" x2="1245.39" y2="563.36" gradientTransform="translate(-516.26 -134.72)" xlink:href="#linear-gradient"/>
    <linearGradient id="linear-gradient-11" x1="1011.53" y1="797.22" x2="1245.39" y2="563.36" gradientTransform="translate(-516.26 -134.72)" xlink:href="#linear-gradient"/>
    <linearGradient id="linear-gradient-12" x1="1011.53" y1="797.22" x2="1245.39" y2="563.36" gradientTransform="translate(-516.26 -134.72)" xlink:href="#linear-gradient"/>
    <linearGradient id="linear-gradient-13" x1="1011.53" y1="797.22" x2="1245.39" y2="563.36" gradientTransform="translate(-516.26 -134.72)" xlink:href="#linear-gradient"/>
    <linearGradient id="linear-gradient-14" x1="1011.53" y1="797.22" x2="1245.39" y2="563.36" gradientTransform="translate(-516.26 -134.72)" xlink:href="#linear-gradient"/>
    <linearGradient id="linear-gradient-15" x1="1011.53" y1="797.22" x2="1245.39" y2="563.36" gradientTransform="translate(-516.26 -134.72)" xlink:href="#linear-gradient"/>
    <linearGradient id="linear-gradient-16" x1="1011.53" y1="797.22" x2="1245.39" y2="563.36" gradientTransform="translate(-516.26 -134.72)" xlink:href="#linear-gradient"/>
  </defs>
  <rect class="cls-2" x="0" y=".24" width="1080" height="1080"/>
  <g>
    <g>
      <path class="cls-1" d="M326.89,503.42h-20.24c-1.15,0-2.24,.48-3.02,1.32l-7.75,8.41c-.7,.76-1.09,1.75-1.09,2.78v18.05c0,1.06,.41,2.08,1.14,2.84l7.31,7.63c.77,.81,1.85,1.27,2.96,1.27h19.8c2.26,0,4.1,1.83,4.11,4.09l.05,11.28c0,1.08-.41,2.11-1.16,2.88l-3.06,3.15c-.78,.8-1.86,1.25-2.98,1.24l-12.74-.12c-1.1-.01-2.16-.46-2.92-1.26l-3.18-3.31c-.74-.77-1.15-1.81-1.15-2.88l.03-2.9c.02-2.29-1.84-4.16-4.14-4.14h0c-2.25,.02-4.07,1.85-4.07,4.11v6.66c0,1.06,.41,2.09,1.15,2.85l7.69,7.95c.77,.8,1.84,1.25,2.95,1.25h20.29c1.15,0,2.25-.48,3.03-1.34l7.64-8.36c.69-.76,1.08-1.74,1.08-2.77v-48.34c0-1.03-.39-2.03-1.09-2.79l-7.63-8.25c-.78-.84-1.87-1.32-3.02-1.32Zm-.81,34.36h-15.7c-1.15,0-2.25-.48-3.03-1.33l-2.47-2.69c-.69-.76-1.08-1.75-1.08-2.77v-12.33c0-1.04,.4-2.05,1.11-2.81l2.44-2.61c.78-.83,1.86-1.3,3-1.3h12.58c1.1,0,2.16,.44,2.93,1.23l3.14,3.21c.75,.77,1.17,1.8,1.17,2.87v14.42c0,2.27-1.84,4.11-4.11,4.11Z"/>
      <path class="cls-7" d="M350.39,598.15h-67.38c-13.49,0-24.46-10.97-24.46-24.46v-67.38c0-13.49,10.97-24.46,24.46-24.46h67.38c13.49,0,24.46,10.97,24.46,24.46v67.38c0,13.49-10.97,24.46-24.46,24.46Zm-67.38-111.66c-10.93,0-19.82,8.89-19.82,19.82v67.38c0,10.93,8.89,19.82,19.82,19.82h67.38c10.93,0,19.82-8.89,19.82-19.82v-67.38c0-10.93-8.89-19.82-19.82-19.82h-67.38Z"/>
    </g>
    <g>
      <g>
        <path class="cls-5" d="M401.11,523.06c.57-5.22,1.83-9.71,3.78-13.44,1.95-3.74,4.75-6.65,8.41-8.75,3.66-2.1,8.58-3.15,14.76-3.15s11.1,1.05,14.76,3.15c3.66,2.1,6.46,5.02,8.41,8.75,1.95,3.74,3.2,8.22,3.78,13.44,.57,5.23,.86,10.93,.86,17.11s-.29,11.98-.86,17.16c-.57,5.19-1.83,9.65-3.78,13.39-1.95,3.74-4.75,6.6-8.41,8.58-3.66,1.98-8.58,2.98-14.76,2.98s-11.1-.99-14.76-2.98c-3.66-1.98-6.46-4.84-8.41-8.58-1.95-3.74-3.2-8.2-3.78-13.39-.57-5.19-.86-10.91-.86-17.16s.29-11.88,.86-17.11Zm16.02,31.12c.27,3.85,.8,6.98,1.6,9.38,.8,2.4,1.95,4.16,3.43,5.26,1.49,1.11,3.45,1.66,5.89,1.66s4.41-.55,5.89-1.66c1.49-1.1,2.63-2.86,3.43-5.26,.8-2.4,1.33-5.53,1.6-9.38,.27-3.85,.4-8.52,.4-14.02s-.13-10.14-.4-13.96c-.27-3.81-.8-6.94-1.6-9.38-.8-2.44-1.95-4.21-3.43-5.32-1.49-1.1-3.45-1.66-5.89-1.66s-4.41,.55-5.89,1.66c-1.49,1.11-2.63,2.88-3.43,5.32-.8,2.44-1.34,5.57-1.6,9.38-.27,3.82-.4,8.47-.4,13.96s.13,10.17,.4,14.02Z"/>
        <path class="cls-6" d="M502.15,513.91c-1.41-2.71-3.99-4.06-7.72-4.06-2.06,0-3.76,.55-5.09,1.66-1.34,1.11-2.39,2.9-3.15,5.38-.76,2.48-1.3,5.72-1.6,9.73-.31,4-.46,8.91-.46,14.7,0,6.18,.21,11.18,.63,14.99,.42,3.82,1.07,6.77,1.95,8.87,.88,2.1,1.98,3.51,3.32,4.23,1.33,.73,2.88,1.09,4.63,1.09,1.45,0,2.8-.25,4.06-.74,1.26-.49,2.35-1.49,3.26-2.97,.92-1.49,1.64-3.58,2.17-6.29,.53-2.71,.8-6.27,.8-10.7h16.48c0,4.43-.34,8.62-1.03,12.59-.69,3.97-1.96,7.44-3.83,10.41-1.87,2.97-4.5,5.3-7.9,6.98-3.4,1.68-7.8,2.52-13.22,2.52-6.18,0-11.1-.99-14.76-2.98-3.66-1.98-6.46-4.84-8.41-8.58-1.95-3.74-3.2-8.2-3.78-13.39-.57-5.19-.86-10.91-.86-17.16s.29-11.88,.86-17.11c.57-5.22,1.83-9.71,3.78-13.44,1.95-3.74,4.75-6.65,8.41-8.75,3.66-2.1,8.58-3.15,14.76-3.15s10.51,.95,13.9,2.86c3.39,1.91,5.93,4.33,7.61,7.27,1.68,2.94,2.73,6.1,3.15,9.5,.42,3.39,.63,6.58,.63,9.55h-16.48c0-5.95-.71-10.28-2.12-12.99Z"/>
        <path class="cls-10" d="M580.24,512.82h-29.18v19.22h27.46v13.5h-27.46v21.97h30.32v13.5h-46.8v-81.7h45.66v13.5Z"/>
        <path class="cls-8" d="M629.67,499.32l21.63,81.7h-17.16l-3.78-17.28h-21.74l-3.78,17.28h-17.16l21.63-81.7h20.37Zm-2.17,50.92l-7.9-36.73h-.23l-7.9,36.73h16.02Z"/>
        <path class="cls-9" d="M699.7,555.28h.23v-55.95h15.1v81.7h-18.77l-20.14-57.21h-.23v57.21h-15.1v-81.7h18.99l19.91,55.95Z"/>
        <path class="cls-3" d="M731.05,499.32h16.48v81.7h-16.48v-81.7Z"/>
        <path class="cls-4" d="M799.82,499.32l21.63,81.7h-17.16l-3.78-17.28h-21.74l-3.78,17.28h-17.16l21.63-81.7h20.37Zm-2.17,50.92l-7.9-36.73h-.23l-7.9,36.73h16.02Z"/>
      </g>
      <g>
        <path class="cls-16" d="M401.11,523.06c.57-5.22,1.83-9.71,3.78-13.44,1.95-3.74,4.75-6.65,8.41-8.75,3.66-2.1,8.58-3.15,14.76-3.15s11.1,1.05,14.76,3.15c3.66,2.1,6.46,5.02,8.41,8.75,1.95,3.74,3.2,8.22,3.78,13.44,.57,5.23,.86,10.93,.86,17.11s-.29,11.98-.86,17.16c-.57,5.19-1.83,9.65-3.78,13.39-1.95,3.74-4.75,6.6-8.41,8.58-3.66,1.98-8.58,2.98-14.76,2.98s-11.1-.99-14.76-2.98c-3.66-1.98-6.46-4.84-8.41-8.58-1.95-3.74-3.2-8.2-3.78-13.39-.57-5.19-.86-10.91-.86-17.16s.29-11.88,.86-17.11Zm16.02,31.12c.27,3.85,.8,6.98,1.6,9.38,.8,2.4,1.95,4.16,3.43,5.26,1.49,1.11,3.45,1.66,5.89,1.66s4.41-.55,5.89-1.66c1.49-1.1,2.63-2.86,3.43-5.26,.8-2.4,1.33-5.53,1.6-9.38,.27-3.85,.4-8.52,.4-14.02s-.13-10.14-.4-13.96c-.27-3.81-.8-6.94-1.6-9.38-.8-2.44-1.95-4.21-3.43-5.32-1.49-1.1-3.45-1.66-5.89-1.66s-4.41,.55-5.89,1.66c-1.49,1.11-2.63,2.88-3.43,5.32-.8,2.44-1.34,5.57-1.6,9.38-.27,3.82-.4,8.47-.4,13.96s.13,10.17,.4,14.02Z"/>
        <path class="cls-17" d="M502.15,513.91c-1.41-2.71-3.99-4.06-7.72-4.06-2.06,0-3.76,.55-5.09,1.66-1.34,1.11-2.39,2.9-3.15,5.38-.76,2.48-1.3,5.72-1.6,9.73-.31,4-.46,8.91-.46,14.7,0,6.18,.21,11.18,.63,14.99,.42,3.82,1.07,6.77,1.95,8.87,.88,2.1,1.98,3.51,3.32,4.23,1.33,.73,2.88,1.09,4.63,1.09,1.45,0,2.8-.25,4.06-.74,1.26-.49,2.35-1.49,3.26-2.97,.92-1.49,1.64-3.58,2.17-6.29,.53-2.71,.8-6.27,.8-10.7h16.48c0,4.43-.34,8.62-1.03,12.59-.69,3.97-1.96,7.44-3.83,10.41-1.87,2.97-4.5,5.3-7.9,6.98-3.4,1.68-7.8,2.52-13.22,2.52-6.18,0-11.1-.99-14.76-2.98-3.66-1.98-6.46-4.84-8.41-8.58-1.95-3.74-3.2-8.2-3.78-13.39-.57-5.19-.86-10.91-.86-17.16s.29-11.88,.86-17.11c.57-5.22,1.83-9.71,3.78-13.44,1.95-3.74,4.75-6.65,8.41-8.75,3.66-2.1,8.58-3.15,14.76-3.15s10.51,.95,13.9,2.86c3.39,1.91,5.93,4.33,7.61,7.27,1.68,2.94,2.73,6.1,3.15,9.5,.42,3.39,.63,6.58,.63,9.55h-16.48c0-5.95-.71-10.28-2.12-12.99Z"/>
        <path class="cls-15" d="M580.24,512.82h-29.18v19.22h27.46v13.5h-27.46v21.97h30.32v13.5h-46.8v-81.7h45.66v13.5Z"/>
        <path class="cls-14" d="M629.67,499.32l21.63,81.7h-17.16l-3.78-17.28h-21.74l-3.78,17.28h-17.16l21.63-81.7h20.37Zm-2.17,50.92l-7.9-36.73h-.23l-7.9,36.73h16.02Z"/>
        <path class="cls-11" d="M699.7,555.28h.23v-55.95h15.1v81.7h-18.77l-20.14-57.21h-.23v57.21h-15.1v-81.7h18.99l19.91,55.95Z"/>
        <path class="cls-12" d="M731.05,499.32h16.48v81.7h-16.48v-81.7Z"/>
        <path class="cls-13" d="M799.82,499.32l21.63,81.7h-17.16l-3.78-17.28h-21.74l-3.78,17.28h-17.16l21.63-81.7h20.37Zm-2.17,50.92l-7.9-36.73h-.23l-7.9,36.73h16.02Z"/>
      </g>
    </g>
  </g>
</svg>