<?xml version="1.0" encoding="UTF-8"?>
<svg id="Layer_1" data-name="Layer 1" xmlns="http://www.w3.org/2000/svg" xmlns:xlink="http://www.w3.org/1999/xlink" viewBox="0 0 1080 1080">
  <defs>
    <style>
      .cls-1 {
        fill: url(#linear-gradient);
      }

      .cls-2 {
        fill: #231f20;
        stroke: #fff;
        stroke-miterlimit: 10;
        stroke-width: 2px;
      }

      .cls-3 {
        fill: url(#linear-gradient-2);
      }
    </style>
    <linearGradient id="linear-gradient" x1="480.53" y1="599.6" x2="599.68" y2="480.45" gradientUnits="userSpaceOnUse">
      <stop offset="0" stop-color="#a97b2c"/>
      <stop offset=".29" stop-color="#d6a747"/>
      <stop offset=".53" stop-color="#e0be88"/>
      <stop offset=".79" stop-color="#f9d678"/>
      <stop offset="1" stop-color="#976c29"/>
    </linearGradient>
    <linearGradient id="linear-gradient-2" x1="414.58" y1="414.58" x2="665.42" y2="665.42" xlink:href="#linear-gradient"/>
  </defs>
  <rect class="cls-2" x="-5.71" width="1080" height="1080"/>
  <g>
    <path class="cls-1" d="M565.05,450.01h-49.8c-2.82,0-5.52,1.18-7.43,3.26l-19.05,20.68c-1.72,1.86-2.67,4.31-2.67,6.84v44.41c0,2.6,1.01,5.11,2.81,6.99l17.99,18.78c1.91,1.99,4.54,3.11,7.29,3.11h48.71c5.56,0,10.08,4.49,10.1,10.06l.12,27.74c.01,2.65-1.02,5.19-2.86,7.09l-7.53,7.74c-1.92,1.98-4.57,3.08-7.33,3.06l-31.34-.29c-2.72-.02-5.31-1.14-7.19-3.1l-7.81-8.13c-1.83-1.9-2.84-4.45-2.82-7.09l.06-7.12c.05-5.64-4.54-10.23-10.18-10.19h0c-5.55,.05-10.02,4.55-10.02,10.1v16.38c0,2.62,1.02,5.14,2.84,7.02l18.91,19.57c1.9,1.97,4.52,3.08,7.26,3.08h49.91c2.84,0,5.54-1.19,7.46-3.29l18.79-20.56c1.7-1.86,2.65-4.29,2.65-6.81v-118.92c0-2.54-.96-4.99-2.68-6.85l-18.76-20.3c-1.91-2.07-4.6-3.25-7.42-3.25Zm-2,84.53h-38.63c-2.83,0-5.53-1.19-7.44-3.27l-6.07-6.62c-1.71-1.86-2.66-4.3-2.66-6.83v-30.33c0-2.56,.98-5.03,2.73-6.9l6.01-6.41c1.91-2.04,4.58-3.2,7.37-3.2h30.96c2.71,0,5.31,1.09,7.21,3.03l7.74,7.89c1.85,1.89,2.89,4.43,2.89,7.07v35.48c0,5.58-4.52,10.1-10.1,10.1Z"/>
    <path class="cls-3" d="M622.88,683.06h-165.77c-33.18,0-60.18-27-60.18-60.18v-165.77c0-33.18,27-60.18,60.18-60.18h165.77c33.18,0,60.18,27,60.18,60.18v165.77c0,33.18-27,60.18-60.18,60.18Zm-165.77-274.72c-26.89,0-48.77,21.88-48.77,48.77v165.77c0,26.89,21.88,48.77,48.77,48.77h165.77c26.89,0,48.77-21.88,48.77-48.77v-165.77c0-26.89-21.88-48.77-48.77-48.77h-165.77Z"/>
  </g>
</svg>