<svg xmlns="http://www.w3.org/2000/svg" xmlns:xlink="http://www.w3.org/1999/xlink" viewBox="0 0 500 500" width="500" height="500" preserveAspectRatio="xMidYMid meet" style="width: 100%; height: 100%; transform: translate3d(0px, 0px, 0px); content-visibility: visible;"><defs><clipPath id="__lottie_element_1321"><rect width="500" height="500" x="0" y="0"></rect></clipPath><linearGradient id="__lottie_element_1349" spreadMethod="pad" gradientUnits="userSpaceOnUse" x1="-1" y1="86" x2="-16.05299949645996" y2="-141.26800537109375"><stop offset="0%" stop-color="rgb(255,198,57)"></stop><stop offset="50%" stop-color="rgb(255,223,143)"></stop><stop offset="100%" stop-color="rgb(255,248,229)"></stop></linearGradient><symbol id="__lottie_element_1350"><g><g transform="matrix(1,0,0,1,0,0.004302978515625)" opacity="1" style="display: block;"><g opacity="1" transform="matrix(1,0,0,1,249.71499633789062,226.71099853515625)"><path fill="url(#__lottie_element_1353)" fill-opacity="1" d=" M0.7509999871253967,-92.1449966430664 C-39.35499954223633,-92.55899810791016 -72.2030029296875,-60.38199996948242 -72.61699676513672,-20.275999069213867 C-72.80899810791016,-1.6950000524520874 -65.87200164794922,16.25200080871582 -53.231998443603516,29.87299919128418 C-40.599998474121094,43.14699935913086 -33.47200012207031,60.71699905395508 -33.2859992980957,79.04000091552734 C-33.2859992980957,79.04000091552734 -32.900001525878906,85.16899871826172 -32.900001525878906,85.16899871826172 C-12.006999969482422,94.15299987792969 11.597999572753906,94.47599792480469 32.729000091552734,86.06900024414062 C32.729000091552734,86.06900024414062 33.29199981689453,79.04000091552734 33.29199981689453,79.04000091552734 C33.266998291015625,60.981998443603516 40.1870002746582,43.60599899291992 52.619998931884766,30.510000228881836 C80.26000213623047,1.4529999494552612 79.11100006103516,-44.507999420166016 50.05400085449219,-72.14800262451172 C36.74399948120117,-84.80899810791016 19.1299991607666,-91.95500183105469 0.7609999775886536,-92.1449966430664 C0.7609999775886536,-92.1449966430664 0.7509999871253967,-92.1449966430664 0.7509999871253967,-92.1449966430664z"></path></g></g></g></symbol><linearGradient id="__lottie_element_1353" spreadMethod="pad" gradientUnits="userSpaceOnUse" x1="1.4079999923706055" y1="50.70399856567383" x2="-160.61419677734375" y2="-40.076900482177734"><stop offset="0%" stop-color="rgb(255,198,57)"></stop><stop offset="50%" stop-color="rgb(255,226,156)"></stop><stop offset="100%" stop-color="rgb(255,255,255)"></stop></linearGradient><mask id="__lottie_element_1350_1" mask-type="alpha"><use xlink:href="#__lottie_element_1350"></use></mask><linearGradient id="__lottie_element_1424" spreadMethod="pad" gradientUnits="userSpaceOnUse" x1="-1" y1="86" x2="-16.05299949645996" y2="-141.26800537109375"><stop offset="0%" stop-color="rgb(255,198,57)"></stop><stop offset="50%" stop-color="rgb(255,213,111)"></stop><stop offset="100%" stop-color="rgb(255,229,166)"></stop></linearGradient><symbol id="__lottie_element_1425"><g><g transform="matrix(1,0,0,1,0,0.1009521484375)" opacity="1" style="display: none;"><g opacity="1" transform="matrix(1,0,0,1,249.71499633789062,226.71099853515625)"><path fill="url(#__lottie_element_1428)" fill-opacity="1" d=" M0.7509999871253967,-92.1449966430664 C-39.35499954223633,-92.55899810791016 -72.2030029296875,-60.38199996948242 -72.61699676513672,-20.275999069213867 C-72.80899810791016,-1.6950000524520874 -65.87200164794922,16.25200080871582 -53.231998443603516,29.87299919128418 C-40.599998474121094,43.14699935913086 -33.47200012207031,60.71699905395508 -33.2859992980957,79.04000091552734 C-33.2859992980957,79.04000091552734 -32.900001525878906,85.16899871826172 -32.900001525878906,85.16899871826172 C-12.006999969482422,94.15299987792969 11.597999572753906,94.47599792480469 32.729000091552734,86.06900024414062 C32.729000091552734,86.06900024414062 33.29199981689453,79.04000091552734 33.29199981689453,79.04000091552734 C33.266998291015625,60.981998443603516 40.1870002746582,43.60599899291992 52.619998931884766,30.510000228881836 C80.26000213623047,1.4529999494552612 79.11100006103516,-44.507999420166016 50.05400085449219,-72.14800262451172 C36.74399948120117,-84.80899810791016 19.1299991607666,-91.95500183105469 0.7609999775886536,-92.1449966430664 C0.7609999775886536,-92.1449966430664 0.7509999871253967,-92.1449966430664 0.7509999871253967,-92.1449966430664z"></path></g></g></g></symbol><linearGradient id="__lottie_element_1428" spreadMethod="pad" gradientUnits="userSpaceOnUse" x1="1.4079999923706055" y1="50.70399856567383" x2="-150.619384765625" y2="-11.12215518951416"><stop offset="0%" stop-color="rgb(255,198,57)"></stop><stop offset="50%" stop-color="rgb(255,226,156)"></stop><stop offset="100%" stop-color="rgb(255,255,255)"></stop></linearGradient><mask id="__lottie_element_1425_1" mask-type="alpha"><use xlink:href="#__lottie_element_1425"></use></mask></defs><g clip-path="url(#__lottie_element_1321)"><g transform="matrix(0.8000863790512085,0,0,0.8000863790512085,43.241912841796875,17.502639770507812)" opacity="1" style="display: block;"><g opacity="1" transform="matrix(1,0,0,1,216.30299377441406,87.5510025024414)"><path fill="rgb(255,232,136)" fill-opacity="1" d=" M0,-11.549500465393066 C6.37416934967041,-11.549500465393066 11.549500465393066,-6.37416934967041 11.549500465393066,0 C11.549500465393066,6.37416934967041 6.37416934967041,11.549500465393066 0,11.549500465393066 C-6.37416934967041,11.549500465393066 -11.549500465393066,6.37416934967041 -11.549500465393066,0 C-11.549500465393066,-6.37416934967041 -6.37416934967041,-11.549500465393066 0,-11.549500465393066z"></path></g></g><g transform="matrix(0.8000863790512085,0,0,0.8000863790512085,66.622802734375,19.811439514160156)" opacity="1" style="display: block;"><g opacity="1" transform="matrix(1,0,0,1,333.25799560546875,99.0999984741211)"><path fill="rgb(255,232,136)" fill-opacity="1" d=" M0,-11.549500465393066 C6.37416934967041,-11.549500465393066 11.549500465393066,-6.37416934967041 11.549500465393066,0 C11.549500465393066,6.37416934967041 6.37416934967041,11.549500465393066 0,11.549500465393066 C-6.37416934967041,11.549500465393066 -11.549500465393066,6.37416934967041 -11.549500465393066,0 C-11.549500465393066,-6.37416934967041 -6.37416934967041,-11.549500465393066 0,-11.549500465393066z"></path></g></g><g transform="matrix(0.8000863790512085,0,0,0.8000863790512085,71.2412109375,60.22137451171875)" opacity="1" style="display: block;"><g opacity="1" transform="matrix(1,0,0,1,356.3599853515625,301.23699951171875)"><path fill="rgb(255,232,136)" fill-opacity="1" d=" M0,-11.549500465393066 C6.37416934967041,-11.549500465393066 11.549500465393066,-6.37416934967041 11.549500465393066,0 C11.549500465393066,6.37416934967041 6.37416934967041,11.549500465393066 0,11.549500465393066 C-6.37416934967041,11.549500465393066 -11.549500465393066,6.37416934967041 -11.549500465393066,0 C-11.549500465393066,-6.37416934967041 -6.37416934967041,-11.549500465393066 0,-11.549500465393066z"></path></g></g><g transform="matrix(0.8000863790512085,0,0,0.8000863790512085,26.343414306640625,59.52427673339844)" opacity="1" style="display: block;"><g opacity="1" transform="matrix(1,0,0,1,131.7740020751953,297.75)"><path fill="rgb(255,232,136)" fill-opacity="1" d=" M0,-11.549500465393066 C6.37416934967041,-11.549500465393066 11.549500465393066,-6.37416934967041 11.549500465393066,0 C11.549500465393066,6.37416934967041 6.37416934967041,11.549500465393066 0,11.549500465393066 C-6.37416934967041,11.549500465393066 -11.549500465393066,6.37416934967041 -11.549500465393066,0 C-11.549500465393066,-6.37416934967041 -6.37416934967041,-11.549500465393066 0,-11.549500465393066z"></path></g></g><g transform="matrix(0.9999568462371826,0,0,0.9999568462371826,0.016693115234375,0.0088958740234375)" opacity="1" style="display: block;"><g opacity="1" transform="matrix(1,0,0,1,386.68701171875,206.2429962158203)"><path fill="rgb(255,232,136)" fill-opacity="1" d=" M0,-18.774999618530273 C10.361922264099121,-18.774999618530273 18.774999618530273,-10.361922264099121 18.774999618530273,0 C18.774999618530273,10.361922264099121 10.361922264099121,18.774999618530273 0,18.774999618530273 C-10.361922264099121,18.774999618530273 -18.774999618530273,10.361922264099121 -18.774999618530273,0 C-18.774999618530273,-10.361922264099121 -10.361922264099121,-18.774999618530273 0,-18.774999618530273z"></path></g></g><g transform="matrix(0.9999568462371826,0,0,0.9999568462371826,0.004913330078125,0.007568359375)" opacity="1" style="display: block;"><g opacity="1" transform="matrix(1,0,0,1,113.80699920654297,175.21400451660156)"><path fill="rgb(255,232,136)" fill-opacity="1" d=" M0,-18.774999618530273 C10.361922264099121,-18.774999618530273 18.774999618530273,-10.361922264099121 18.774999618530273,0 C18.774999618530273,10.361922264099121 10.361922264099121,18.774999618530273 0,18.774999618530273 C-10.361922264099121,18.774999618530273 -18.774999618530273,10.361922264099121 -18.774999618530273,0 C-18.774999618530273,-10.361922264099121 -10.361922264099121,-18.774999618530273 0,-18.774999618530273z"></path></g></g><g transform="matrix(1,0,0,1,0,0.004302978515625)" opacity="1" style="display: block;"><g opacity="1" transform="matrix(1,0,0,1,249.68299865722656,323.5820007324219)"><path fill="rgb(78,59,86)" fill-opacity="1" d=" M0.004000000189989805,-11.706000328063965 C-11.312999725341797,-11.743000030517578 -22.549999237060547,-13.607999801635742 -33.270999908447266,-17.229999542236328 C-33.270999908447266,-17.229999542236328 -33.29600143432617,-17.229999542236328 -33.29600143432617,-17.229999542236328 C-33.928001403808594,1.159000039100647 -19.531999588012695,16.577999114990234 -1.1430000066757202,17.209999084472656 C17.246000289916992,17.841999053955078 32.665000915527344,3.446000099182129 33.297000885009766,-14.942999839782715 C33.323001861572266,-15.699000358581543 33.323001861572266,-16.454999923706055 33.297000885009766,-17.211000442504883 C22.566999435424805,-13.597999572753906 11.326000213623047,-11.73900032043457 0.004000000189989805,-11.706000328063965z"></path></g><g opacity="1" transform="matrix(1,0,0,1,0,0)"><path stroke-linecap="round" stroke-linejoin="miter" fill-opacity="0" stroke-miterlimit="4" stroke-dasharray=" 20 55" stroke-dashoffset="-24.637500762939453" stroke="rgb(255,255,255)" stroke-opacity="1" stroke-width="5" d=" M217.25,316.15399169921875 C217.25,316.15399169921875 227,323.40399169921875 250.75,323.15399169921875 C274,322.90399169921875 281.75,316.15399169921875 281.75,316.15399169921875"></path></g></g><g mask="url(#__lottie_element_1350_1)" style="display: block;"><g transform="matrix(0.0006783994613215327,-0.9999997615814209,0.9999997615814209,0.0006783994613215327,-70.141357421875,569.1893310546875)" opacity="1"><g opacity="1" transform="matrix(1,0,0,1,250,232)"><path fill="url(#__lottie_element_1349)" fill-opacity="1" d=" M300,-300 C300,-300 300,300 300,300 C300,300 -300,300 -300,300 C-300,300 -300,-300 -300,-300 C-300,-300 300,-300 300,-300z"></path><path stroke-linecap="butt" stroke-linejoin="miter" fill-opacity="0" stroke-miterlimit="4" stroke="rgb(255,255,255)" stroke-opacity="1" stroke-width="0" d=" M300,-300 C300,-300 300,300 300,300 C300,300 -300,300 -300,300 C-300,300 -300,-300 -300,-300 C-300,-300 300,-300 300,-300z"></path></g></g></g><g mask="url(#__lottie_element_1425_1)" style="display: none;"><g transform="matrix(0.015859564766287804,-0.9998742341995239,0.9998742341995239,0.015859564766287804,-73.89218139648438,564.4014892578125)" opacity="1"><g opacity="1" transform="matrix(1,0,0,1,250,232)"><path fill="url(#__lottie_element_1424)" fill-opacity="1" d=" M300,-300 C300,-300 300,300 300,300 C300,300 -300,300 -300,300 C-300,300 -300,-300 -300,-300 C-300,-300 300,-300 300,-300z"></path><path stroke-linecap="butt" stroke-linejoin="miter" fill-opacity="0" stroke-miterlimit="4" stroke="rgb(255,255,255)" stroke-opacity="1" stroke-width="0" d=" M300,-300 C300,-300 300,300 300,300 C300,300 -300,300 -300,300 C-300,300 -300,-300 -300,-300 C-300,-300 300,-300 300,-300z"></path></g></g></g><g transform="matrix(1,0,0,1,249.6999969482422,294.8633117675781)" opacity="1" style="display: block;"><g opacity="1" transform="matrix(1,0,0,1,0,0)"><path fill="rgb(255,255,255)" fill-opacity="1" d=" M0,20.22800064086914 C-1.7769999504089355,20.22800064086914 -3.2170000076293945,18.78700065612793 -3.2170000076293945,17.010000228881836 C-3.2170000076293945,17.010000228881836 -3.2170000076293945,-17.010000228881836 -3.2170000076293945,-17.010000228881836 C-3.2170000076293945,-18.78700065612793 -1.7769999504089355,-20.22800064086914 0,-20.22800064086914 C1.7769999504089355,-20.22800064086914 3.2170000076293945,-18.78700065612793 3.2170000076293945,-17.010000228881836 C3.2170000076293945,-17.010000228881836 3.2170000076293945,17.010000228881836 3.2170000076293945,17.010000228881836 C3.2170000076293945,18.78700065612793 1.7769999504089355,20.22800064086914 0,20.22800064086914z"></path></g></g><g transform="matrix(1,0,0,1,249.69400024414062,257.7912902832031)" opacity="1" style="display: block;"><g opacity="1" transform="matrix(1,0,0,1,0,0)"><path fill="rgb(255,255,255)" fill-opacity="1" d=" M0,-4.098999977111816 C2.2639999389648438,-4.098999977111816 4.098999977111816,-2.2639999389648438 4.098999977111816,0 C4.098999977111816,2.2639999389648438 2.2639999389648438,4.098999977111816 0,4.098999977111816 C-2.2639999389648438,4.098999977111816 -4.098999977111816,2.2639999389648438 -4.098999977111816,0 C-4.098999977111816,-2.2639999389648438 -2.2639999389648438,-4.098999977111816 0,-4.098999977111816z"></path></g></g><g transform="matrix(1,0,0,1,249.79100036621094,230.8693084716797)" opacity="1" style="display: block;"><g opacity="1" transform="matrix(1,0,0,1,0,0)"><path stroke-linecap="round" stroke-linejoin="round" fill-opacity="0" stroke="rgb(255,255,255)" stroke-opacity="1" stroke-width="6" d=" M20.912256240844727,-9.720999717712402 C14.707630157470703,-8.864151000976562 11.769701957702637,-5.979096412658691 9.282455444335938,-2.7139999866485596 C4.997476577758789,2.912020206451416 5.393197536468506,9.856521606445312 0,9.857999801635742 C-6.082711219787598,9.856874465942383 -5.283275127410889,0.6947339177131653 -10.997246742248535,-4.7220001220703125 C-16.047685623168945,-9.5059175491333 -20.912256240844727,-9.857999801635742 -20.912256240844727,-9.857999801635742"></path></g></g><g transform="matrix(1,0,0,1,0,0.004302978515625)" opacity="1" style="display: block;"><g opacity="1" transform="matrix(1,0,0,1,246.2169952392578,391.62701416015625)"><path fill="rgb(255,151,123)" fill-opacity="1" d=" M75.94100189208984,-10.199999809265137 C66.99700164794922,-16.209999084472656 49.220001220703125,-8.019000053405762 38.375,-6.738999843597412 C42.73899841308594,-7.370999813079834 45.76499938964844,-11.420999526977539 45.132999420166016,-15.78499984741211 C44.72999954223633,-18.565000534057617 42.89799880981445,-20.929000854492188 40.305999755859375,-22.010000228881836 C30.216999053955078,-25.875 19.808000564575195,-28.84600067138672 9.199000358581543,-30.888999938964844 C-7.507999897003174,-34.24800109863281 -24.860000610351562,-31.868000030517578 -40.04499816894531,-24.134000778198242 C-48.409000396728516,-20.173999786376953 -72.34100341796875,-3.865999937057495 -78.26399993896484,5.376999855041504 C-79.09700012207031,6.558000087738037 -79.45800018310547,8.006999969482422 -79.2770004272461,9.4399995803833 C-78.67900085449219,14.831999778747559 -62.47700119018555,30.389999389648438 -57.50699996948242,32.00199890136719 C-55.665000915527344,32.689998626708984 -53.60100173950195,32.4119987487793 -52.00600051879883,31.261999130249023 C-49.01100158691406,29.332000732421875 -42.42599868774414,22.871000289916992 -35.79199981689453,20.538999557495117 C-23.506000518798828,16.218000411987305 -3.128000020980835,19.95400047302246 6.789999961853027,19.715999603271484 C21.382999420166016,19.364999771118164 70.12200164794922,6.873000144958496 77.6500015258789,0.07500000298023224 C80.10199737548828,-2.7160000801086426 79.82599639892578,-6.966000080108643 77.03500366210938,-9.418000221252441 C76.6969985961914,-9.71500015258789 76.33100128173828,-9.97700023651123 75.94100189208984,-10.199999809265137z"></path></g><g opacity="1" transform="matrix(1,0,0,1,267.49700927734375,384.31201171875)"><path fill="rgb(237,72,80)" fill-opacity="1" d=" M-17.079999923706055,4.4019999504089355 C-18.85700035095215,4.4039998054504395 -20.298999786376953,2.9660000801086426 -20.301000595092773,1.1890000104904175 C-20.302000045776367,0.02199999988079071 -19.672000885009766,-1.0549999475479126 -18.652999877929688,-1.6239999532699585 C-11.420999526977539,-5.65500020980835 -2.8440001010894775,-4.419000148773193 4.716000080108643,-3.3320000171661377 C8.621999740600586,-2.5450000762939453 12.616999626159668,-2.3010001182556152 16.59000015258789,-2.6050000190734863 C18.34600067138672,-2.877000093460083 19.990999221801758,-1.6729999780654907 20.26300048828125,0.08299999684095383 C20.53499984741211,1.8389999866485596 19.33099937438965,3.4830000400543213 17.575000762939453,3.755000114440918 C17.575000762939453,3.755000114440918 17.575000762939453,3.755000114440918 17.575000762939453,3.755000114440918 C12.972000122070312,4.179999828338623 8.331999778747559,3.937000036239624 3.7990000247955322,3.0339999198913574 C-3.072999954223633,2.0460000038146973 -10.1850004196167,1.0230000019073486 -15.503000259399414,3.999000072479248 C-15.984999656677246,4.267000198364258 -16.52899932861328,4.406000137329102 -17.079999923706055,4.4019999504089355z"></path></g></g></g></svg>