<svg xmlns="http://www.w3.org/2000/svg" xmlns:xlink="http://www.w3.org/1999/xlink" viewBox="0 0 550 550" width="550" height="550" preserveAspectRatio="xMidYMid meet" style="width: 100%; height: 100%; transform: translate3d(0px, 0px, 0px); content-visibility: visible;"><defs><clipPath id="__lottie_element_1439"><rect width="550" height="550" x="0" y="0"></rect></clipPath></defs><g clip-path="url(#__lottie_element_1439)"><g transform="matrix(1.0000001192092896,0,0,1.0000001192092896,-685.0001220703125,-265.00006103515625)" opacity="1" style="display: block;"><g opacity="1" transform="matrix(1,0,0,1,961.3499755859375,540)"><path fill="rgb(255,208,53)" fill-opacity="1" d=" M78.76499938964844,0 C78.76499938964844,43.500999450683594 43.5,78.76499938964844 0,78.76499938964844 C-43.500999450683594,78.76499938964844 -78.76499938964844,43.500999450683594 -78.76499938964844,0 C-78.76499938964844,-43.5 -43.500999450683594,-78.76499938964844 0,-78.76499938964844 C43.5,-78.76499938964844 78.76499938964844,-43.5 78.76499938964844,0z"></path></g></g><g transform="matrix(0.22700001299381256,0,0,0.22700001299381256,57.079986572265625,152.41998291015625)" opacity="1" style="display: block;"><g opacity="1" transform="matrix(1,0,0,1,961.3499755859375,540)"><path fill="rgb(255,255,255)" fill-opacity="1" d=" M78.76499938964844,0 C78.76499938964844,43.500999450683594 43.5,78.76499938964844 0,78.76499938964844 C-43.500999450683594,78.76499938964844 -78.76499938964844,43.500999450683594 -78.76499938964844,0 C-78.76499938964844,-43.5 -43.500999450683594,-78.76499938964844 0,-78.76499938964844 C43.5,-78.76499938964844 78.76499938964844,-43.5 78.76499938964844,0z"></path></g></g><g transform="matrix(1,0,0,1,-685,-265)" opacity="1" style="display: block;"><g opacity="1" transform="matrix(1,0,0,1,1058.614990234375,423.864990234375)"><path fill="rgb(255,208,53)" fill-opacity="1" d=" M26,0 C26,14.359000205993652 14.359000205993652,26 0,26 C-14.359000205993652,26 -26,14.359000205993652 -26,0 C-26,-14.359000205993652 -14.359000205993652,-26 0,-26 C14.359000205993652,-26 26,-14.359000205993652 26,0z"></path></g></g><g transform="matrix(1.4753799438476562,0,0,1.4753799438476562,235.4270477294922,255.08236694335938)" opacity="1" style="display: block;"><g opacity="1" transform="matrix(0.9740599989891052,0,0,0.9740599989891052,27.5,13.5)"><path stroke-linecap="round" stroke-linejoin="miter" fill-opacity="0" stroke-miterlimit="4" stroke="rgb(255,208,53)" stroke-opacity="1" stroke-width="35" d=" M91.09500122070312,21.143999099731445 C81.5009994506836,62.57699966430664 44.332000732421875,93.5 0,93.5 C-51.6026496887207,93.5 -93.5,51.6026496887207 -93.5,0 C-93.5,-51.6026496887207 -51.6026496887207,-93.5 0,-93.5 C0,-93.5 0,-93.5 0,-93.5 C5.238999843597412,-93.5 10.376999855041504,-93.06800079345703 15.381999969482422,-92.23799896240234"></path></g></g><g transform="matrix(0.48537999391555786,0,0,0.48537999391555786,262.65203857421875,268.4473571777344)" opacity="1" style="display: block;"><g opacity="1" transform="matrix(0.9740599989891052,0,0,0.9740599989891052,27.5,13.5)"><path stroke-linecap="round" stroke-linejoin="miter" fill-opacity="0" stroke-miterlimit="4" stroke="rgb(255,255,255)" stroke-opacity="1" stroke-width="35" d=" M-93.26799774169922,-6.633999824523926 C-89.86000061035156,-55.145999908447266 -49.37200164794922,-93.5 0,-93.5 C0,-93.5 0,-93.5 0,-93.5 C51.6026496887207,-93.5 93.5,-51.6026496887207 93.5,0 C93.5,51.6026496887207 51.6026496887207,93.5 0,93.5 C0,93.5 0,93.5 0,93.5"></path></g></g><g transform="matrix(0,0,0,0,-438,-175.5)" opacity="1" style="display: block;"></g></g></svg>