<?xml version="1.0" encoding="UTF-8"?>
<svg id="Layer_1" data-name="Layer 1" xmlns="http://www.w3.org/2000/svg" viewBox="0 0 1920 1080">
  <defs>
    <style>
      .cls-1 {
        fill: #f6dfa4;
      }
    </style>
  </defs>
  <g>
    <g>
      <g>
        <path class="cls-1" d="M105.88,508.9c-.91-4.55-1.37-9.45-1.37-14.69,0-13.73,3.71-26.17,11.12-37.31,7.43-11.13,18.63-19.97,33.59-26.5,14.97-6.53,33.25-9.79,54.85-9.79,15.09,0,29.83,1.81,44.23,5.42,14.4,3.59,27.01,8.77,37.81,15.52l-16.87,41.52c-21.83-12.38-43.67-18.56-65.5-18.56-15.31,0-26.62,2.47-33.94,7.43-7.31,4.95-10.96,11.47-10.96,19.57,0,7.65,3.77,13.44,11.3,17.39H105.88Z"/>
        <path class="cls-1" d="M296.24,591.76c0,13.51-3.77,25.84-11.31,36.97-7.55,11.14-18.86,19.98-33.94,26.5-15.07,6.51-33.41,9.78-55,9.78-18.68,0-36.75-2.54-54.19-7.59-17.45-5.07-31.45-11.65-42.02-19.75l18.56-41.19c10.13,7.44,22.16,13.4,36.11,17.9,13.96,4.5,27.91,6.75,41.87,6.75,15.53,0,27-2.3,34.42-6.92,7.43-4.61,11.14-10.74,11.14-18.39,0-5.63-2.19-10.29-6.58-14-2.24-1.89-4.79-3.6-7.67-5.11h67.16c.97,4.63,1.45,9.65,1.45,15.05Z"/>
      </g>
      <g>
        <polygon class="cls-1" points="388.05 508.9 333.69 508.9 333.69 424.67 512.25 424.67 512.25 468.55 388.05 468.55 388.05 508.9"/>
        <polygon class="cls-1" points="516.65 617.09 516.65 660.96 333.69 660.96 333.69 576.71 388.05 576.71 388.05 617.09 516.65 617.09"/>
      </g>
      <path class="cls-1" d="M716.47,585.01c5.51-2.39,10.57-5.16,15.18-8.3h-171.47v84.25h54.69v-65.83h50.29l45.56,65.83h58.75l-53-75.95Zm36.1-120.17c-8.32-12.83-20.18-22.74-35.6-29.71-15.42-6.97-33.59-10.46-54.52-10.46h-102.27v84.23h54.69v-39.67h44.56c16.42,0,28.9,3.55,37.46,10.63,8.23,6.81,12.5,16.49,12.81,29.04h55.36c-.23-16.91-4.39-31.6-12.49-44.06Z"/>
      <g>
        <polygon class="cls-1" points="872.17 508.9 813.54 508.9 777.21 424.67 836.29 424.67 872.17 508.9"/>
        <polygon class="cls-1" points="915.41 576.71 969.62 576.71 933.16 660.96 879.14 660.96 842.8 576.71 901.05 576.71 908.18 593.44 915.41 576.71"/>
        <polygon class="cls-1" points="1035.43 424.67 998.97 508.9 944.71 508.9 981.1 424.67 1035.43 424.67"/>
      </g>
      <g>
        <rect class="cls-1" x="1060.07" y="424.67" width="54.69" height="84.23"/>
        <rect class="cls-1" x="1060.07" y="576.71" width="54.69" height="84.25"/>
      </g>
      <g>
        <path class="cls-1" d="M1346.3,590.42l35.13,32.4c-11.27,13.72-25.23,24.19-41.88,31.39-16.65,7.2-35.22,10.8-55.68,10.8-24.09,0-45.87-5.23-65.34-15.69-19.46-10.46-34.76-24.97-45.89-43.54-5.46-9.1-9.59-18.8-12.36-29.07h57.97c.81,1.79,1.7,3.55,2.66,5.27,6.41,11.48,15.36,20.42,26.83,26.84,11.47,6.4,24.53,9.6,39.17,9.6,23.62,0,43.42-9.33,59.39-28Z"/>
        <path class="cls-1" d="M1218.27,508.9h-57.99c2.78-10.26,6.9-19.95,12.36-29.04,11.13-18.57,26.43-33.08,45.89-43.54,19.47-10.47,41.36-15.71,65.67-15.71,20.48,0,38.99,3.6,55.52,10.81,16.54,7.2,30.44,17.55,41.71,31.06l-35.13,32.4c-15.97-18.46-35.77-27.69-59.39-27.69-14.64,0-27.7,3.21-39.17,9.63-11.47,6.41-20.42,15.37-26.83,26.85-.95,1.71-1.84,3.45-2.64,5.23Z"/>
      </g>
      <g>
        <polygon class="cls-1" points="1472.55 508.9 1418.2 508.9 1418.2 424.67 1596.76 424.67 1596.76 468.55 1472.55 468.55 1472.55 508.9"/>
        <polygon class="cls-1" points="1601.16 617.09 1601.16 660.96 1418.2 660.96 1418.2 576.71 1472.55 576.71 1472.55 617.09 1601.16 617.09"/>
      </g>
    </g>
    <g>
      <path class="cls-1" d="M1629.86,508.9c-.91-4.55-1.37-9.45-1.37-14.69,0-13.73,3.71-26.17,11.13-37.31,7.42-11.13,18.62-19.97,33.58-26.5,14.97-6.53,33.25-9.79,54.85-9.79,15.09,0,29.83,1.81,44.23,5.42,14.4,3.59,27.01,8.77,37.81,15.52l-16.87,41.52c-21.83-12.38-43.67-18.56-65.5-18.56-15.31,0-26.62,2.47-33.94,7.43-7.31,4.95-10.96,11.47-10.96,19.57,0,7.65,3.77,13.44,11.3,17.39h-64.26Z"/>
      <path class="cls-1" d="M1820.22,591.76c0,13.51-3.77,25.84-11.31,36.97-7.54,11.14-18.86,19.98-33.94,26.5-15.07,6.51-33.41,9.78-55,9.78-18.68,0-36.75-2.54-54.19-7.59-17.45-5.07-31.45-11.65-42.02-19.75l18.56-41.19c10.13,7.44,22.16,13.4,36.11,17.9,13.96,4.5,27.91,6.75,41.87,6.75,15.53,0,27-2.3,34.42-6.92,7.43-4.61,11.15-10.74,11.15-18.39,0-5.63-2.2-10.29-6.59-14-2.24-1.89-4.79-3.6-7.67-5.11h67.16c.97,4.63,1.45,9.65,1.45,15.05Z"/>
    </g>
  </g>
  <g>
    <path d="M135.99,566.22c-5.37,0-10.08-.97-14.11-2.91-4.02-1.95-7.11-4.7-9.26-8.24-2.14-3.54-3.21-7.61-3.21-12.23,0-6.1,1.39-11.6,4.17-16.49,2.8-4.89,6.73-8.74,11.8-11.56,5.08-2.82,10.91-4.24,17.48-4.24,4.82,0,9.07,.82,12.76,2.47,3.68,1.63,6.48,3.99,8.39,7.06l-9,7.38c-2.87-4.19-7.2-6.29-13-6.29-3.95,0-7.44,.93-10.46,2.77-3.01,1.83-5.36,4.34-7.03,7.51-1.66,3.18-2.49,6.72-2.49,10.62,0,4.15,1.32,7.44,3.95,9.87,2.63,2.44,6.34,3.65,11.12,3.65,5.68,0,10.44-2.08,14.29-6.23l7.38,7.54c-5.33,6.2-12.92,9.31-22.76,9.31Z"/>
    <path d="M195.58,523.32c4.61,0,8.28,1.23,10.99,3.69,2.72,2.46,4.08,5.95,4.08,10.46,0,1.63-.17,3.27-.52,4.92l-4.63,22.91h-11.99l4.46-22.15c.2-.87,.31-1.82,.31-2.84,0-2.15-.59-3.79-1.77-4.92-1.17-1.14-2.93-1.7-5.29-1.7-3.09,0-5.65,.89-7.67,2.67-2.03,1.76-3.4,4.41-4.11,7.95l-4.15,20.99h-11.99l11.38-57.06h11.99l-3.84,19.46c3.54-2.93,7.79-4.39,12.76-4.39Z"/>
    <path d="M238.02,565.91c-4.15,0-7.81-.76-10.97-2.29-3.15-1.54-5.58-3.71-7.3-6.51-1.72-2.8-2.58-6.03-2.58-9.72,0-4.55,1.08-8.66,3.23-12.3,2.15-3.64,5.12-6.51,8.91-8.61,3.8-2.11,8.08-3.17,12.84-3.17,4.21,0,7.87,.78,10.99,2.32,3.13,1.53,5.55,3.69,7.27,6.49,1.71,2.8,2.58,6.04,2.58,9.72,0,4.58-1.06,8.68-3.19,12.32-2.13,3.64-5.11,6.51-8.93,8.61-3.82,2.1-8.1,3.15-12.87,3.15Zm.76-9.92c2.32,0,4.39-.57,6.23-1.73,1.85-1.15,3.28-2.75,4.3-4.81,1.03-2.05,1.55-4.41,1.55-7.08,0-2.82-.82-5.05-2.47-6.68-1.63-1.64-3.94-2.47-6.92-2.47-2.36,0-4.47,.58-6.31,1.75-1.83,1.15-3.27,2.75-4.3,4.81-1.02,2.04-1.53,4.39-1.53,7.06,0,2.83,.83,5.06,2.49,6.71,1.67,1.63,4,2.45,6.97,2.45Z"/>
    <path d="M288.31,565.91c-4.15,0-7.81-.76-10.97-2.29-3.15-1.54-5.58-3.71-7.3-6.51-1.72-2.8-2.58-6.03-2.58-9.72,0-4.55,1.08-8.66,3.23-12.3,2.15-3.64,5.12-6.51,8.91-8.61,3.8-2.11,8.08-3.17,12.84-3.17,4.21,0,7.87,.78,10.99,2.32,3.13,1.53,5.55,3.69,7.27,6.49,1.71,2.8,2.58,6.04,2.58,9.72,0,4.58-1.06,8.68-3.19,12.32-2.13,3.64-5.11,6.51-8.93,8.61-3.82,2.1-8.1,3.15-12.87,3.15Zm.76-9.92c2.32,0,4.39-.57,6.23-1.73,1.85-1.15,3.28-2.75,4.3-4.81,1.03-2.05,1.55-4.41,1.55-7.08,0-2.82-.82-5.05-2.47-6.68-1.63-1.64-3.94-2.47-6.92-2.47-2.36,0-4.47,.58-6.31,1.75-1.83,1.15-3.27,2.75-4.3,4.81-1.02,2.04-1.53,4.39-1.53,7.06,0,2.83,.83,5.06,2.49,6.71,1.67,1.63,4,2.45,6.97,2.45Z"/>
    <path d="M332.06,565.91c-3.6,0-7-.39-10.2-1.18-3.21-.8-5.7-1.84-7.49-3.12l4.61-8.69c1.8,1.18,4,2.14,6.58,2.86,2.59,.72,5.2,1.07,7.82,1.07s4.72-.34,6.05-1.03c1.34-.7,2.01-1.69,2.01-2.97,0-1.03-.59-1.77-1.77-2.23-1.18-.46-3.07-.95-5.68-1.46-2.97-.57-5.42-1.18-7.34-1.83-1.92-.67-3.59-1.76-5-3.28-1.41-1.51-2.12-3.58-2.12-6.2,0-4.55,1.91-8.12,5.72-10.68,3.83-2.56,8.84-3.84,15.03-3.84,2.88,0,5.68,.32,8.39,.94,2.72,.61,5.03,1.45,6.92,2.51l-4.3,8.78c-3.4-2.11-7.47-3.17-12.23-3.17-2.61,0-4.6,.39-5.96,1.16-1.35,.78-2.03,1.75-2.03,2.93,0,1.08,.59,1.87,1.77,2.36,1.18,.48,3.15,1,5.92,1.57,2.93,.56,5.32,1.15,7.19,1.79,1.88,.64,3.51,1.7,4.89,3.19,1.38,1.49,2.08,3.51,2.08,6.07,0,4.62-1.94,8.19-5.81,10.7-3.88,2.51-8.89,3.76-15.03,3.76Z"/>
    <path d="M402.73,541.54c0,1.91-.23,4.01-.7,6.31h-31.67c.4,5.64,3.96,8.45,10.68,8.45,2.1,0,4.11-.33,6.03-.98,1.92-.67,3.6-1.62,5.05-2.86l5,7.93c-2.32,1.83-4.96,3.22-7.93,4.15-2.97,.92-6.09,1.38-9.37,1.38-4.27,0-8.01-.75-11.21-2.27-3.21-1.51-5.67-3.68-7.38-6.49-1.7-2.82-2.56-6.08-2.56-9.76,0-4.55,1.03-8.67,3.1-12.34,2.08-3.67,4.96-6.54,8.65-8.61,3.7-2.08,7.9-3.12,12.6-3.12,4,0,7.48,.74,10.42,2.23,2.95,1.49,5.24,3.62,6.86,6.38,1.62,2.77,2.42,5.97,2.42,9.61Zm-20.23-9.22c-2.83,0-5.22,.76-7.17,2.27-1.94,1.52-3.32,3.6-4.15,6.27h20.53c0-2.67-.84-4.75-2.51-6.27-1.66-1.51-3.9-2.27-6.71-2.27Z"/>
    <path d="M478.76,523.93l-6.84,34.45c-1.55,7.79-4.51,13.48-8.89,17.06-4.39,3.59-10.24,5.4-17.56,5.4-4.01,0-7.69-.47-11.05-1.4-3.35-.92-6.23-2.27-8.63-4.06l5.68-8.69c1.64,1.38,3.76,2.47,6.33,3.28,2.59,.8,5.33,1.2,8.21,1.2,4.05,0,7.12-.89,9.22-2.67,2.1-1.76,3.53-4.44,4.3-8.04l.31-1.77c-3.34,3.07-7.54,4.61-12.6,4.61-3.44,0-6.54-.7-9.31-2.1-2.77-1.41-4.96-3.42-6.58-6.03-1.62-2.62-2.42-5.7-2.42-9.24,0-4.21,.99-8.02,2.99-11.45,2.01-3.44,4.77-6.15,8.28-8.15,3.51-2.01,7.44-3.01,11.8-3.01,3.23,0,6.06,.61,8.5,1.81,2.43,1.21,4.27,3.07,5.5,5.57l1.31-6.77h11.45Zm-28.29,29.53c3.48,0,6.35-1.12,8.61-3.39,2.26-2.26,3.39-5.16,3.39-8.69,0-2.5-.82-4.48-2.47-5.94-1.63-1.47-3.91-2.21-6.84-2.21-3.54,0-6.46,1.13-8.74,3.39-2.27,2.26-3.41,5.16-3.41,8.69,0,2.51,.84,4.49,2.53,5.96,1.69,1.46,4,2.18,6.92,2.18Z"/>
    <path d="M500.3,528.87c1.79-1.95,3.95-3.36,6.49-4.24s5.52-1.31,8.96-1.31l-2.14,11.08c-1.44-.1-2.37-.15-2.77-.15-3.64,0-6.55,.9-8.74,2.69-2.17,1.79-3.64,4.59-4.41,8.39l-4,19.99h-11.99l8.24-41.37h11.36l-.98,4.94Z"/>
    <path d="M536.43,565.91c-4.15,0-7.81-.76-10.97-2.29-3.15-1.54-5.58-3.71-7.3-6.51-1.72-2.8-2.58-6.03-2.58-9.72,0-4.55,1.08-8.66,3.23-12.3,2.15-3.64,5.12-6.51,8.91-8.61,3.8-2.11,8.08-3.17,12.84-3.17,4.21,0,7.87,.78,10.99,2.32,3.13,1.53,5.55,3.69,7.27,6.49,1.71,2.8,2.58,6.04,2.58,9.72,0,4.58-1.06,8.68-3.19,12.32-2.13,3.64-5.11,6.51-8.93,8.61-3.82,2.1-8.1,3.15-12.87,3.15Zm.76-9.92c2.32,0,4.39-.57,6.23-1.73,1.85-1.15,3.28-2.75,4.3-4.81,1.03-2.05,1.55-4.41,1.55-7.08,0-2.82-.82-5.05-2.47-6.68-1.63-1.64-3.94-2.47-6.92-2.47-2.36,0-4.47,.58-6.31,1.75-1.83,1.15-3.27,2.75-4.3,4.81-1.02,2.04-1.53,4.39-1.53,7.06,0,2.83,.83,5.06,2.49,6.71,1.67,1.63,4,2.45,6.97,2.45Z"/>
    <path d="M640.3,523.93l-22.83,41.37h-11.84l-4.76-25.75-14.24,25.75h-11.69l-7.3-41.37h10.92l4.54,27.83,15.53-27.83h10.29l4.7,27.83,15.38-27.83h11.29Z"/>
    <path d="M653.76,550.69c-.1,.41-.15,.98-.15,1.7,0,2.67,1.46,4,4.39,4,1.58,0,3.19-.49,4.83-1.46l1.77,8.54c-2.67,1.63-6.09,2.45-10.29,2.45-3.9,0-7.03-1.02-9.39-3.06-2.36-2.05-3.54-4.88-3.54-8.48,0-1.02,.13-2.22,.39-3.6l3.3-16.69h-6.38l1.86-9.24h6.38l1.99-10.07h11.99l-1.99,10.07h10.31l-1.86,9.24h-10.31l-3.3,16.6Z"/>
    <path d="M703.19,523.32c4.61,0,8.28,1.23,10.99,3.69,2.72,2.46,4.08,5.95,4.08,10.46,0,1.63-.17,3.27-.52,4.92l-4.63,22.91h-11.99l4.46-22.15c.2-.87,.31-1.82,.31-2.84,0-2.15-.59-3.79-1.77-4.92-1.17-1.14-2.93-1.7-5.29-1.7-3.09,0-5.65,.89-7.67,2.67-2.03,1.76-3.4,4.41-4.11,7.95l-4.15,20.99h-11.99l11.38-57.06h11.99l-3.84,19.46c3.54-2.93,7.79-4.39,12.76-4.39Z"/>
    <path d="M729.5,565.91c-2.05,0-3.75-.64-5.09-1.94-1.33-1.31-1.99-2.97-1.99-4.98,0-2.36,.76-4.28,2.29-5.77,1.54-1.49,3.44-2.23,5.7-2.23,2.05,0,3.72,.64,5.02,1.92,1.31,1.28,1.97,2.95,1.97,5,0,2.3-.78,4.21-2.34,5.72-1.56,1.52-3.42,2.27-5.57,2.27Z"/>
    <path d="M794.99,566.22c-5.37,0-10.08-.97-14.11-2.91-4.02-1.95-7.11-4.7-9.26-8.24-2.14-3.54-3.21-7.61-3.21-12.23,0-6.1,1.39-11.6,4.17-16.49,2.8-4.89,6.73-8.74,11.8-11.56,5.08-2.82,10.91-4.24,17.48-4.24,4.82,0,9.07,.82,12.76,2.47,3.68,1.63,6.48,3.99,8.39,7.06l-9,7.38c-2.87-4.19-7.2-6.29-13-6.29-3.95,0-7.44,.93-10.46,2.77-3.01,1.83-5.36,4.34-7.03,7.51-1.66,3.18-2.49,6.72-2.49,10.62,0,4.15,1.32,7.44,3.95,9.87,2.63,2.44,6.34,3.65,11.12,3.65,5.68,0,10.44-2.08,14.29-6.23l7.38,7.54c-5.33,6.2-12.92,9.31-22.76,9.31Z"/>
    <path d="M854.58,523.32c4.61,0,8.28,1.23,10.99,3.69,2.72,2.46,4.08,5.95,4.08,10.46,0,1.63-.17,3.27-.52,4.92l-4.63,22.91h-11.99l4.46-22.15c.2-.87,.31-1.82,.31-2.84,0-2.15-.59-3.79-1.77-4.92-1.17-1.14-2.93-1.7-5.29-1.7-3.09,0-5.65,.89-7.67,2.67-2.03,1.76-3.4,4.41-4.11,7.95l-4.15,20.99h-11.99l11.38-57.06h11.99l-3.84,19.46c3.54-2.93,7.79-4.39,12.76-4.39Z"/>
    <path d="M897.03,565.91c-4.15,0-7.81-.76-10.97-2.29-3.15-1.54-5.58-3.71-7.3-6.51-1.72-2.8-2.58-6.03-2.58-9.72,0-4.55,1.08-8.66,3.23-12.3,2.15-3.64,5.12-6.51,8.91-8.61,3.8-2.11,8.08-3.17,12.84-3.17,4.21,0,7.87,.78,10.99,2.32,3.13,1.53,5.55,3.69,7.27,6.49,1.71,2.8,2.58,6.04,2.58,9.72,0,4.58-1.06,8.68-3.19,12.32-2.13,3.64-5.11,6.51-8.93,8.61-3.82,2.1-8.1,3.15-12.87,3.15Zm.76-9.92c2.32,0,4.39-.57,6.23-1.73,1.85-1.15,3.28-2.75,4.3-4.81,1.03-2.05,1.55-4.41,1.55-7.08,0-2.82-.82-5.05-2.47-6.68-1.63-1.64-3.94-2.47-6.92-2.47-2.36,0-4.47,.58-6.31,1.75-1.83,1.15-3.27,2.75-4.3,4.81-1.02,2.04-1.53,4.39-1.53,7.06,0,2.83,.83,5.06,2.49,6.71,1.67,1.63,4,2.45,6.97,2.45Z"/>
    <path d="M947.32,565.91c-4.15,0-7.81-.76-10.97-2.29-3.15-1.54-5.58-3.71-7.3-6.51-1.72-2.8-2.58-6.03-2.58-9.72,0-4.55,1.08-8.66,3.23-12.3,2.15-3.64,5.12-6.51,8.91-8.61,3.8-2.11,8.08-3.17,12.84-3.17,4.21,0,7.87,.78,10.99,2.32,3.13,1.53,5.55,3.69,7.27,6.49,1.71,2.8,2.58,6.04,2.58,9.72,0,4.58-1.06,8.68-3.19,12.32-2.13,3.64-5.11,6.51-8.93,8.61-3.82,2.1-8.1,3.15-12.87,3.15Zm.76-9.92c2.32,0,4.39-.57,6.23-1.73,1.85-1.15,3.28-2.75,4.3-4.81,1.03-2.05,1.55-4.41,1.55-7.08,0-2.82-.82-5.05-2.47-6.68-1.63-1.64-3.94-2.47-6.92-2.47-2.36,0-4.47,.58-6.31,1.75-1.83,1.15-3.27,2.75-4.3,4.81-1.02,2.04-1.53,4.39-1.53,7.06,0,2.83,.83,5.06,2.49,6.71,1.67,1.63,4,2.45,6.97,2.45Z"/>
    <path d="M991.07,565.91c-3.6,0-7-.39-10.2-1.18-3.21-.8-5.7-1.84-7.49-3.12l4.61-8.69c1.8,1.18,4,2.14,6.58,2.86,2.59,.72,5.2,1.07,7.82,1.07s4.72-.34,6.05-1.03c1.34-.7,2.01-1.69,2.01-2.97,0-1.03-.59-1.77-1.77-2.23-1.18-.46-3.07-.95-5.68-1.46-2.97-.57-5.42-1.18-7.34-1.83-1.92-.67-3.59-1.76-5-3.28-1.41-1.51-2.12-3.58-2.12-6.2,0-4.55,1.91-8.12,5.72-10.68,3.83-2.56,8.84-3.84,15.03-3.84,2.88,0,5.68,.32,8.39,.94,2.72,.61,5.03,1.45,6.92,2.51l-4.3,8.78c-3.4-2.11-7.47-3.17-12.23-3.17-2.61,0-4.6,.39-5.96,1.16-1.35,.78-2.03,1.75-2.03,2.93,0,1.08,.59,1.87,1.77,2.36,1.18,.48,3.15,1,5.92,1.57,2.93,.56,5.32,1.15,7.19,1.79,1.88,.64,3.51,1.7,4.89,3.19,1.38,1.49,2.08,3.51,2.08,6.07,0,4.62-1.94,8.19-5.81,10.7-3.88,2.51-8.89,3.76-15.03,3.76Z"/>
    <path d="M1061.74,541.54c0,1.91-.23,4.01-.7,6.31h-31.67c.4,5.64,3.96,8.45,10.68,8.45,2.1,0,4.11-.33,6.03-.98,1.92-.67,3.6-1.62,5.05-2.86l5,7.93c-2.32,1.83-4.96,3.22-7.93,4.15-2.97,.92-6.09,1.38-9.37,1.38-4.27,0-8.01-.75-11.21-2.27-3.21-1.51-5.67-3.68-7.38-6.49-1.7-2.82-2.56-6.08-2.56-9.76,0-4.55,1.03-8.67,3.1-12.34,2.08-3.67,4.96-6.54,8.65-8.61,3.7-2.08,7.9-3.12,12.6-3.12,4,0,7.48,.74,10.42,2.23,2.95,1.49,5.24,3.62,6.86,6.38,1.62,2.77,2.42,5.97,2.42,9.61Zm-20.23-9.22c-2.83,0-5.22,.76-7.17,2.27-1.94,1.52-3.32,3.6-4.15,6.27h20.53c0-2.67-.84-4.75-2.51-6.27-1.66-1.51-3.9-2.27-6.71-2.27Z"/>
    <g>
      <path d="M1095.1,523.93h11.91l-8.24,41.37h-11.91l8.24-41.37Zm8-5.77c-2.05,0-3.74-.6-5.05-1.79-1.31-1.21-1.97-2.69-1.97-4.43,0-2.05,.73-3.76,2.18-5.11,1.47-1.35,3.39-2.03,5.75-2.03,2.1,0,3.8,.58,5.11,1.73,1.31,1.15,1.97,2.57,1.97,4.26,0,2.22-.74,4-2.23,5.35s-3.41,2.03-5.77,2.03Z"/>
      <path d="M1170.07,523.32c4.5,0,8.08,1.22,10.75,3.65,2.67,2.44,4,5.89,4,10.35,0,1.63-.17,3.32-.52,5.07l-4.54,22.91h-11.99l4.39-22.06c.2-1.03,.31-2.09,.31-3.17,0-2.1-.56-3.68-1.66-4.76-1.11-1.08-2.74-1.62-4.89-1.62-5.78,0-9.39,3.46-10.83,10.38l-4.22,21.23h-12.01l4.39-22.06c.2-1.03,.31-2.06,.31-3.08,0-2.1-.56-3.7-1.66-4.81-1.09-1.1-2.72-1.66-4.87-1.66-5.8,0-9.44,3.52-10.92,10.55l-4.15,21.06h-11.99l8.24-41.37h11.36l-.92,4.3c3.59-3.28,7.93-4.92,13-4.92,2.87,0,5.42,.58,7.65,1.73,2.23,1.15,3.91,2.83,5.05,5.05,1.99-2.21,4.33-3.89,6.99-5.05,2.67-1.15,5.59-1.73,8.78-1.73Z"/>
    </g>
    <path d="M1222.05,523.32c3.22,0,6.19,.74,8.93,2.23,2.75,1.49,4.94,3.63,6.55,6.42,1.62,2.8,2.42,6.09,2.42,9.87,0,4.58-1.02,8.69-3.04,12.36-2.03,3.66-4.78,6.53-8.28,8.61-3.48,2.07-7.35,3.1-11.6,3.1-6.31,0-10.77-2.04-13.39-6.14l-4.06,20.45h-11.99l11.23-56.29h11.36l-.83,4.08c3.44-3.13,7.67-4.7,12.69-4.7Zm-6.4,32.68c2.36,0,4.46-.57,6.31-1.73,1.85-1.15,3.28-2.75,4.3-4.81,1.03-2.05,1.55-4.41,1.55-7.08,0-2.82-.84-5.05-2.51-6.68-1.66-1.64-3.98-2.47-6.95-2.47-2.32,0-4.4,.58-6.25,1.75-1.83,1.15-3.27,2.75-4.3,4.81-1.02,2.04-1.53,4.39-1.53,7.06,0,2.83,.81,5.06,2.45,6.71,1.64,1.63,3.95,2.45,6.92,2.45Z"/>
    <path d="M1293.84,523.93l-8.21,41.37h-11.38l.76-4.08c-3.44,3.13-7.67,4.7-12.69,4.7-3.23,0-6.21-.74-8.93-2.23-2.71-1.49-4.87-3.63-6.49-6.42-1.61-2.8-2.4-6.08-2.4-9.87,0-4.55,1.01-8.67,3.04-12.34,2.02-3.67,4.77-6.54,8.26-8.61,3.48-2.08,7.32-3.12,11.53-3.12,6.36,0,10.85,2.08,13.46,6.23l1.07-5.61h11.99Zm-27.83,32.07c2.36,0,4.46-.57,6.31-1.73,1.85-1.15,3.28-2.75,4.3-4.81,1.02-2.05,1.53-4.41,1.53-7.08,0-2.82-.83-5.05-2.49-6.68-1.66-1.64-3.99-2.47-6.97-2.47-2.36,0-4.47,.58-6.31,1.75-1.83,1.15-3.27,2.75-4.3,4.81-1.02,2.04-1.53,4.39-1.53,7.06,0,2.83,.83,5.06,2.49,6.71,1.67,1.63,4,2.45,6.97,2.45Z"/>
    <path d="M1318.54,565.91c-4.27,0-7.99-.76-11.16-2.29-3.18-1.54-5.62-3.71-7.34-6.51-1.72-2.8-2.58-6.03-2.58-9.72,0-4.55,1.08-8.66,3.23-12.3,2.15-3.64,5.16-6.51,9-8.61,3.84-2.11,8.18-3.17,13-3.17,4.4,0,8.2,.91,11.4,2.73,3.2,1.82,5.6,4.4,7.19,7.73l-10.14,5.07c-1.79-3.74-4.87-5.61-9.24-5.61-2.35,0-4.46,.58-6.33,1.75-1.87,1.15-3.33,2.75-4.39,4.81-1.05,2.04-1.57,4.37-1.57,6.99,0,2.81,.84,5.06,2.53,6.73,1.7,1.66,4.06,2.49,7.08,2.49,4.41,0,7.8-1.84,10.16-5.53l8.85,5.53c-2.01,3.13-4.75,5.57-8.21,7.32-3.45,1.74-7.27,2.6-11.47,2.6Z"/>
    <path d="M1358.43,550.69c-.1,.41-.15,.98-.15,1.7,0,2.67,1.46,4,4.39,4,1.58,0,3.19-.49,4.83-1.46l1.77,8.54c-2.67,1.63-6.09,2.45-10.29,2.45-3.9,0-7.03-1.02-9.39-3.06-2.36-2.05-3.54-4.88-3.54-8.48,0-1.02,.13-2.22,.39-3.6l3.3-16.69h-6.38l1.86-9.24h6.38l1.99-10.07h11.99l-1.99,10.07h10.31l-1.86,9.24h-10.31l-3.3,16.6Z"/>
    <path d="M1381.05,565.91c-2.05,0-3.75-.64-5.09-1.94-1.33-1.31-1.99-2.97-1.99-4.98,0-2.36,.76-4.28,2.29-5.77,1.54-1.49,3.44-2.23,5.7-2.23,2.05,0,3.72,.64,5.02,1.92,1.31,1.28,1.97,2.95,1.97,5,0,2.3-.78,4.21-2.34,5.72-1.56,1.52-3.42,2.27-5.57,2.27Z"/>
    <path d="M1446.54,566.22c-5.37,0-10.08-.97-14.11-2.91-4.02-1.95-7.11-4.7-9.26-8.24-2.14-3.54-3.21-7.61-3.21-12.23,0-6.1,1.39-11.6,4.17-16.49,2.8-4.89,6.73-8.74,11.8-11.56,5.08-2.82,10.91-4.24,17.48-4.24,4.82,0,9.07,.82,12.76,2.47,3.68,1.63,6.48,3.99,8.39,7.06l-9,7.38c-2.87-4.19-7.2-6.29-13-6.29-3.95,0-7.44,.93-10.46,2.77-3.01,1.83-5.36,4.34-7.03,7.51-1.66,3.18-2.49,6.72-2.49,10.62,0,4.15,1.32,7.44,3.95,9.87,2.63,2.44,6.34,3.65,11.12,3.65,5.68,0,10.44-2.08,14.29-6.23l7.38,7.54c-5.33,6.2-12.92,9.31-22.76,9.31Z"/>
    <path d="M1506.13,523.32c4.61,0,8.28,1.23,10.99,3.69,2.72,2.46,4.08,5.95,4.08,10.46,0,1.63-.17,3.27-.52,4.92l-4.63,22.91h-11.99l4.46-22.15c.2-.87,.31-1.82,.31-2.84,0-2.15-.59-3.79-1.77-4.92-1.17-1.14-2.93-1.7-5.29-1.7-3.09,0-5.65,.89-7.67,2.67-2.03,1.76-3.4,4.41-4.11,7.95l-4.15,20.99h-11.99l11.38-57.06h11.99l-3.84,19.46c3.54-2.93,7.79-4.39,12.76-4.39Z"/>
    <path d="M1548.58,565.91c-4.15,0-7.81-.76-10.97-2.29-3.15-1.54-5.58-3.71-7.3-6.51-1.72-2.8-2.58-6.03-2.58-9.72,0-4.55,1.08-8.66,3.23-12.3,2.15-3.64,5.12-6.51,8.91-8.61,3.8-2.11,8.08-3.17,12.84-3.17,4.21,0,7.87,.78,10.99,2.32,3.13,1.53,5.55,3.69,7.27,6.49,1.71,2.8,2.58,6.04,2.58,9.72,0,4.58-1.06,8.68-3.19,12.32-2.13,3.64-5.11,6.51-8.93,8.61-3.82,2.1-8.1,3.15-12.87,3.15Zm.76-9.92c2.32,0,4.39-.57,6.23-1.73,1.85-1.15,3.28-2.75,4.3-4.81,1.03-2.05,1.55-4.41,1.55-7.08,0-2.82-.82-5.05-2.47-6.68-1.63-1.64-3.94-2.47-6.92-2.47-2.36,0-4.47,.58-6.31,1.75-1.83,1.15-3.27,2.75-4.3,4.81-1.02,2.04-1.53,4.39-1.53,7.06,0,2.83,.83,5.06,2.49,6.71,1.67,1.63,4,2.45,6.97,2.45Z"/>
    <path d="M1598.87,565.91c-4.15,0-7.81-.76-10.97-2.29-3.15-1.54-5.58-3.71-7.3-6.51-1.72-2.8-2.58-6.03-2.58-9.72,0-4.55,1.08-8.66,3.23-12.3,2.15-3.64,5.12-6.51,8.91-8.61,3.8-2.11,8.08-3.17,12.84-3.17,4.21,0,7.87,.78,10.99,2.32,3.13,1.53,5.55,3.69,7.27,6.49,1.71,2.8,2.58,6.04,2.58,9.72,0,4.58-1.06,8.68-3.19,12.32-2.13,3.64-5.11,6.51-8.93,8.61-3.82,2.1-8.1,3.15-12.87,3.15Zm.76-9.92c2.32,0,4.39-.57,6.23-1.73,1.85-1.15,3.28-2.75,4.3-4.81,1.03-2.05,1.55-4.41,1.55-7.08,0-2.82-.82-5.05-2.47-6.68-1.63-1.64-3.94-2.47-6.92-2.47-2.36,0-4.47,.58-6.31,1.75-1.83,1.15-3.27,2.75-4.3,4.81-1.02,2.04-1.53,4.39-1.53,7.06,0,2.83,.83,5.06,2.49,6.71,1.67,1.63,4,2.45,6.97,2.45Z"/>
    <path d="M1642.62,565.91c-3.6,0-7-.39-10.2-1.18-3.21-.8-5.7-1.84-7.49-3.12l4.61-8.69c1.8,1.18,4,2.14,6.58,2.86,2.59,.72,5.2,1.07,7.82,1.07s4.72-.34,6.05-1.03c1.34-.7,2.01-1.69,2.01-2.97,0-1.03-.59-1.77-1.77-2.23-1.18-.46-3.07-.95-5.68-1.46-2.97-.57-5.42-1.18-7.34-1.83-1.92-.67-3.59-1.76-5-3.28-1.41-1.51-2.12-3.58-2.12-6.2,0-4.55,1.91-8.12,5.72-10.68,3.83-2.56,8.84-3.84,15.03-3.84,2.88,0,5.68,.32,8.39,.94,2.72,.61,5.03,1.45,6.92,2.51l-4.3,8.78c-3.4-2.11-7.47-3.17-12.23-3.17-2.61,0-4.6,.39-5.96,1.16-1.35,.78-2.03,1.75-2.03,2.93,0,1.08,.59,1.87,1.77,2.36,1.18,.48,3.15,1,5.92,1.57,2.93,.56,5.32,1.15,7.19,1.79,1.88,.64,3.51,1.7,4.89,3.19,1.38,1.49,2.08,3.51,2.08,6.07,0,4.62-1.94,8.19-5.81,10.7-3.88,2.51-8.89,3.76-15.03,3.76Z"/>
    <path d="M1713.29,541.54c0,1.91-.23,4.01-.7,6.31h-31.67c.4,5.64,3.96,8.45,10.68,8.45,2.1,0,4.11-.33,6.03-.98,1.92-.67,3.6-1.62,5.05-2.86l5,7.93c-2.32,1.83-4.96,3.22-7.93,4.15-2.97,.92-6.09,1.38-9.37,1.38-4.27,0-8.01-.75-11.21-2.27-3.21-1.51-5.67-3.68-7.38-6.49-1.7-2.82-2.56-6.08-2.56-9.76,0-4.55,1.03-8.67,3.1-12.34,2.08-3.67,4.96-6.54,8.65-8.61,3.7-2.08,7.9-3.12,12.6-3.12,4,0,7.48,.74,10.42,2.23,2.95,1.49,5.24,3.62,6.86,6.38,1.62,2.77,2.42,5.97,2.42,9.61Zm-20.23-9.22c-2.83,0-5.22,.76-7.17,2.27-1.94,1.52-3.32,3.6-4.15,6.27h20.53c0-2.67-.84-4.75-2.51-6.27-1.66-1.51-3.9-2.27-6.71-2.27Z"/>
    <path d="M1788.31,523.93l-8.21,41.37h-11.38l.83-4.46c-1.79,1.69-3.84,2.96-6.16,3.8-2.3,.84-4.73,1.27-7.3,1.27-4.5,0-8.1-1.23-10.79-3.69-2.7-2.46-4.04-5.92-4.04-10.38,0-1.69,.18-3.35,.55-5l4.52-22.91h12.01l-4.39,22.15c-.21,.98-.31,1.98-.31,2.99,0,4.31,2.3,6.47,6.92,6.47,3.01,0,5.5-.88,7.47-2.64,1.98-1.77,3.33-4.43,4.06-7.97l4.22-20.99h11.99Z"/>
    <path d="M1806.31,565.91c-3.6,0-7-.39-10.2-1.18-3.21-.8-5.7-1.84-7.49-3.12l4.61-8.69c1.8,1.18,4,2.14,6.58,2.86,2.59,.72,5.2,1.07,7.82,1.07s4.72-.34,6.05-1.03c1.34-.7,2.01-1.69,2.01-2.97,0-1.03-.59-1.77-1.77-2.23-1.18-.46-3.07-.95-5.68-1.46-2.97-.57-5.42-1.18-7.34-1.83-1.92-.67-3.59-1.76-5-3.28-1.41-1.51-2.12-3.58-2.12-6.2,0-4.55,1.91-8.12,5.72-10.68,3.83-2.56,8.84-3.84,15.03-3.84,2.88,0,5.68,.32,8.39,.94,2.72,.61,5.03,1.45,6.92,2.51l-4.3,8.78c-3.4-2.11-7.47-3.17-12.23-3.17-2.61,0-4.6,.39-5.96,1.16-1.35,.78-2.03,1.75-2.03,2.93,0,1.08,.59,1.87,1.77,2.36,1.18,.48,3.15,1,5.92,1.57,2.93,.56,5.32,1.15,7.19,1.79,1.88,.64,3.51,1.7,4.89,3.19,1.38,1.49,2.08,3.51,2.08,6.07,0,4.62-1.94,8.19-5.81,10.7-3.88,2.51-8.89,3.76-15.03,3.76Z"/>
  </g>
</svg>