<svg xmlns="http://www.w3.org/2000/svg" xmlns:xlink="http://www.w3.org/1999/xlink" width="1920" zoomAndPan="magnify" viewBox="0 0 1440 809.999993" height="1080" preserveAspectRatio="xMidYMid meet" version="1.0"><defs><g/><clipPath id="4deb42fc7f"><path d="M 134.222656 67.09375 L 1359 67.09375 L 1359 303.359375 L 134.222656 303.359375 Z M 134.222656 67.09375 " clip-rule="nonzero"/></clipPath></defs><rect x="-144" width="1728" fill="#ffffff" y="-80.999999" height="971.999992" fill-opacity="1"/><rect x="-144" width="1728" fill="#fff4ea" y="-80.999999" height="971.999992" fill-opacity="1"/><g clip-path="url(#4deb42fc7f)"><path fill="#ffc61a" d="M 134.222656 67.09375 L 1358.929688 67.09375 L 1358.929688 303.359375 L 134.222656 303.359375 Z M 134.222656 67.09375 " fill-opacity="1" fill-rule="nonzero"/></g><g fill="#fff4ea" fill-opacity="1"><g transform="translate(102.46693, 279.783476)"><g><path d="M 79.25 3.03125 C 65.238281 3.03125 51.691406 1.132812 38.609375 -2.65625 C 25.523438 -6.457031 15.019531 -11.394531 7.09375 -17.46875 L 21.015625 -48.359375 C 28.609375 -42.785156 37.632812 -38.3125 48.09375 -34.9375 C 58.5625 -31.5625 69.03125 -29.875 79.5 -29.875 C 91.144531 -29.875 99.75 -31.601562 105.3125 -35.0625 C 110.882812 -38.519531 113.671875 -43.117188 113.671875 -48.859375 C 113.671875 -53.078125 112.023438 -56.578125 108.734375 -59.359375 C 105.441406 -62.148438 101.222656 -64.390625 96.078125 -66.078125 C 90.929688 -67.765625 83.96875 -69.617188 75.1875 -71.640625 C 61.6875 -74.847656 50.628906 -78.054688 42.015625 -81.265625 C 33.410156 -84.472656 26.03125 -89.617188 19.875 -96.703125 C 13.71875 -103.796875 10.640625 -113.25 10.640625 -125.0625 C 10.640625 -135.363281 13.421875 -144.691406 18.984375 -153.046875 C 24.554688 -161.398438 32.953125 -168.023438 44.171875 -172.921875 C 55.398438 -177.816406 69.113281 -180.265625 85.3125 -180.265625 C 96.625 -180.265625 107.679688 -178.910156 118.484375 -176.203125 C 129.285156 -173.503906 138.738281 -169.625 146.84375 -164.5625 L 134.1875 -133.421875 C 117.8125 -142.703125 101.4375 -147.34375 85.0625 -147.34375 C 73.582031 -147.34375 65.097656 -145.484375 59.609375 -141.765625 C 54.128906 -138.054688 51.390625 -133.164062 51.390625 -127.09375 C 51.390625 -121.019531 54.550781 -116.503906 60.875 -113.546875 C 67.207031 -110.585938 76.875 -107.675781 89.875 -104.8125 C 103.375 -101.601562 114.425781 -98.394531 123.03125 -95.1875 C 131.644531 -91.976562 139.03125 -86.914062 145.1875 -80 C 151.351562 -73.082031 154.4375 -63.71875 154.4375 -51.90625 C 154.4375 -41.769531 151.609375 -32.523438 145.953125 -24.171875 C 140.296875 -15.816406 131.8125 -9.191406 120.5 -4.296875 C 109.195312 0.585938 95.445312 3.03125 79.25 3.03125 Z M 79.25 3.03125 "/></g></g></g><g fill="#fff4ea" fill-opacity="1"><g transform="translate(263.978229, 279.783476)"><g><path d="M 158.234375 -32.90625 L 158.234375 0 L 21.015625 0 L 21.015625 -177.21875 L 154.9375 -177.21875 L 154.9375 -144.3125 L 61.78125 -144.3125 L 61.78125 -105.828125 L 144.0625 -105.828125 L 144.0625 -73.921875 L 61.78125 -73.921875 L 61.78125 -32.90625 Z M 158.234375 -32.90625 "/></g></g></g><g fill="#fff4ea" fill-opacity="1"><g transform="translate(433.843571, 279.783476)"><g><path d="M 133.921875 0 L 99.75 -49.375 L 62.03125 -49.375 L 62.03125 0 L 21.015625 0 L 21.015625 -177.21875 L 97.71875 -177.21875 C 113.414062 -177.21875 127.046875 -174.601562 138.609375 -169.375 C 150.171875 -164.144531 159.070312 -156.71875 165.3125 -147.09375 C 171.5625 -137.46875 174.6875 -126.078125 174.6875 -112.921875 C 174.6875 -99.753906 171.519531 -88.398438 165.1875 -78.859375 C 158.863281 -69.328125 149.878906 -62.03125 138.234375 -56.96875 L 177.984375 0 Z M 133.171875 -112.921875 C 133.171875 -122.878906 129.960938 -130.515625 123.546875 -135.828125 C 117.128906 -141.140625 107.765625 -143.796875 95.453125 -143.796875 L 62.03125 -143.796875 L 62.03125 -82.03125 L 95.453125 -82.03125 C 107.765625 -82.03125 117.128906 -84.726562 123.546875 -90.125 C 129.960938 -95.53125 133.171875 -103.128906 133.171875 -112.921875 Z M 133.171875 -112.921875 "/></g></g></g><g fill="#fff4ea" fill-opacity="1"><g transform="translate(619.910691, 279.783476)"><g><path d="M 191.390625 -177.21875 L 114.6875 0 L 74.171875 0 L -2.28125 -177.21875 L 42.03125 -177.21875 L 95.953125 -50.640625 L 150.640625 -177.21875 Z M 191.390625 -177.21875 "/></g></g></g><g fill="#fff4ea" fill-opacity="1"><g transform="translate(808.762431, 279.783476)"><g><path d="M 21.015625 -177.21875 L 62.03125 -177.21875 L 62.03125 0 L 21.015625 0 Z M 21.015625 -177.21875 "/></g></g></g><g fill="#fff4ea" fill-opacity="1"><g transform="translate(891.796422, 279.783476)"><g><path d="M 105.828125 3.03125 C 87.765625 3.03125 71.429688 -0.890625 56.828125 -8.734375 C 42.234375 -16.578125 30.757812 -27.460938 22.40625 -41.390625 C 14.050781 -55.316406 9.875 -71.054688 9.875 -88.609375 C 9.875 -106.160156 14.050781 -121.898438 22.40625 -135.828125 C 30.757812 -149.753906 42.234375 -160.640625 56.828125 -168.484375 C 71.429688 -176.335938 87.847656 -180.265625 106.078125 -180.265625 C 121.441406 -180.265625 135.320312 -177.5625 147.71875 -172.15625 C 160.125 -166.757812 170.550781 -158.992188 179 -148.859375 L 152.65625 -124.5625 C 140.675781 -138.40625 125.828125 -145.328125 108.109375 -145.328125 C 97.128906 -145.328125 87.335938 -142.921875 78.734375 -138.109375 C 70.128906 -133.296875 63.421875 -126.582031 58.609375 -117.96875 C 53.796875 -109.363281 51.390625 -99.578125 51.390625 -88.609375 C 51.390625 -77.640625 53.796875 -67.847656 58.609375 -59.234375 C 63.421875 -50.628906 70.128906 -43.921875 78.734375 -39.109375 C 87.335938 -34.304688 97.128906 -31.90625 108.109375 -31.90625 C 125.828125 -31.90625 140.675781 -38.90625 152.65625 -52.90625 L 179 -28.609375 C 170.550781 -18.316406 160.082031 -10.46875 147.59375 -5.0625 C 135.101562 0.332031 121.179688 3.03125 105.828125 3.03125 Z M 105.828125 3.03125 "/></g></g></g><g fill="#fff4ea" fill-opacity="1"><g transform="translate(1077.357255, 279.783476)"><g><path d="M 158.234375 -32.90625 L 158.234375 0 L 21.015625 0 L 21.015625 -177.21875 L 154.9375 -177.21875 L 154.9375 -144.3125 L 61.78125 -144.3125 L 61.78125 -105.828125 L 144.0625 -105.828125 L 144.0625 -73.921875 L 61.78125 -73.921875 L 61.78125 -32.90625 Z M 158.234375 -32.90625 "/></g></g></g><g fill="#fff4ea" fill-opacity="1"><g transform="translate(1247.222578, 279.783476)"><g><path d="M 79.25 3.03125 C 65.238281 3.03125 51.691406 1.132812 38.609375 -2.65625 C 25.523438 -6.457031 15.019531 -11.394531 7.09375 -17.46875 L 21.015625 -48.359375 C 28.609375 -42.785156 37.632812 -38.3125 48.09375 -34.9375 C 58.5625 -31.5625 69.03125 -29.875 79.5 -29.875 C 91.144531 -29.875 99.75 -31.601562 105.3125 -35.0625 C 110.882812 -38.519531 113.671875 -43.117188 113.671875 -48.859375 C 113.671875 -53.078125 112.023438 -56.578125 108.734375 -59.359375 C 105.441406 -62.148438 101.222656 -64.390625 96.078125 -66.078125 C 90.929688 -67.765625 83.96875 -69.617188 75.1875 -71.640625 C 61.6875 -74.847656 50.628906 -78.054688 42.015625 -81.265625 C 33.410156 -84.472656 26.03125 -89.617188 19.875 -96.703125 C 13.71875 -103.796875 10.640625 -113.25 10.640625 -125.0625 C 10.640625 -135.363281 13.421875 -144.691406 18.984375 -153.046875 C 24.554688 -161.398438 32.953125 -168.023438 44.171875 -172.921875 C 55.398438 -177.816406 69.113281 -180.265625 85.3125 -180.265625 C 96.625 -180.265625 107.679688 -178.910156 118.484375 -176.203125 C 129.285156 -173.503906 138.738281 -169.625 146.84375 -164.5625 L 134.1875 -133.421875 C 117.8125 -142.703125 101.4375 -147.34375 85.0625 -147.34375 C 73.582031 -147.34375 65.097656 -145.484375 59.609375 -141.765625 C 54.128906 -138.054688 51.390625 -133.164062 51.390625 -127.09375 C 51.390625 -121.019531 54.550781 -116.503906 60.875 -113.546875 C 67.207031 -110.585938 76.875 -107.675781 89.875 -104.8125 C 103.375 -101.601562 114.425781 -98.394531 123.03125 -95.1875 C 131.644531 -91.976562 139.03125 -86.914062 145.1875 -80 C 151.351562 -73.082031 154.4375 -63.71875 154.4375 -51.90625 C 154.4375 -41.769531 151.609375 -32.523438 145.953125 -24.171875 C 140.296875 -15.816406 131.8125 -9.191406 120.5 -4.296875 C 109.195312 0.585938 95.445312 3.03125 79.25 3.03125 Z M 79.25 3.03125 "/></g></g></g><g fill="#000000" fill-opacity="1"><g transform="translate(129.62505, 374.704151)"><g><path d="M 21.828125 0.65625 C 17.984375 0.65625 14.617188 -0.0351562 11.734375 -1.421875 C 8.859375 -2.816406 6.648438 -4.78125 5.109375 -7.3125 C 3.578125 -9.84375 2.8125 -12.757812 2.8125 -16.0625 C 2.8125 -20.425781 3.804688 -24.359375 5.796875 -27.859375 C 7.796875 -31.359375 10.609375 -34.113281 14.234375 -36.125 C 17.867188 -38.144531 22.035156 -39.15625 26.734375 -39.15625 C 30.179688 -39.15625 33.222656 -38.566406 35.859375 -37.390625 C 38.492188 -36.222656 40.492188 -34.539062 41.859375 -32.34375 L 35.421875 -27.0625 C 33.367188 -30.0625 30.269531 -31.5625 26.125 -31.5625 C 23.300781 -31.5625 20.804688 -30.898438 18.640625 -29.578125 C 16.484375 -28.265625 14.804688 -26.472656 13.609375 -24.203125 C 12.421875 -21.929688 11.828125 -19.398438 11.828125 -16.609375 C 11.828125 -13.640625 12.769531 -11.285156 14.65625 -9.546875 C 16.539062 -7.804688 19.191406 -6.9375 22.609375 -6.9375 C 26.671875 -6.9375 30.078125 -8.421875 32.828125 -11.390625 L 38.109375 -6 C 34.296875 -1.5625 28.867188 0.65625 21.828125 0.65625 Z M 21.828125 0.65625 "/></g></g></g><g fill="#000000" fill-opacity="1"><g transform="translate(169.937586, 374.704151)"><g><path d="M 24.140625 -30.03125 C 27.441406 -30.03125 30.0625 -29.148438 32 -27.390625 C 33.945312 -25.628906 34.921875 -23.132812 34.921875 -19.90625 C 34.921875 -18.738281 34.796875 -17.566406 34.546875 -16.390625 L 31.234375 0 L 22.65625 0 L 25.84375 -15.84375 C 25.988281 -16.46875 26.0625 -17.144531 26.0625 -17.875 C 26.0625 -19.414062 25.640625 -20.585938 24.796875 -21.390625 C 23.960938 -22.203125 22.703125 -22.609375 21.015625 -22.609375 C 18.804688 -22.609375 16.976562 -21.972656 15.53125 -20.703125 C 14.082031 -19.441406 13.101562 -17.546875 12.59375 -15.015625 L 9.625 0 L 1.046875 0 L 9.1875 -40.8125 L 17.765625 -40.8125 L 15.015625 -26.890625 C 17.546875 -28.984375 20.585938 -30.03125 24.140625 -30.03125 Z M 24.140625 -30.03125 "/></g></g></g><g fill="#000000" fill-opacity="1"><g transform="translate(207.94025, 374.704151)"><g><path d="M 16.5 0.4375 C 13.53125 0.4375 10.914062 -0.109375 8.65625 -1.203125 C 6.40625 -2.304688 4.664062 -3.859375 3.4375 -5.859375 C 2.207031 -7.859375 1.59375 -10.175781 1.59375 -12.8125 C 1.59375 -16.070312 2.363281 -19.003906 3.90625 -21.609375 C 5.445312 -24.210938 7.570312 -26.265625 10.28125 -27.765625 C 13 -29.273438 16.0625 -30.03125 19.46875 -30.03125 C 22.476562 -30.03125 25.097656 -29.476562 27.328125 -28.375 C 29.566406 -27.28125 31.300781 -25.734375 32.53125 -23.734375 C 33.757812 -21.734375 34.375 -19.414062 34.375 -16.78125 C 34.375 -13.507812 33.613281 -10.570312 32.09375 -7.96875 C 30.570312 -5.363281 28.441406 -3.3125 25.703125 -1.8125 C 22.972656 -0.3125 19.90625 0.4375 16.5 0.4375 Z M 17.046875 -6.65625 C 18.703125 -6.65625 20.1875 -7.066406 21.5 -7.890625 C 22.820312 -8.710938 23.847656 -9.859375 24.578125 -11.328125 C 25.316406 -12.796875 25.6875 -14.484375 25.6875 -16.390625 C 25.6875 -18.410156 25.097656 -20.003906 23.921875 -21.171875 C 22.753906 -22.347656 21.101562 -22.9375 18.96875 -22.9375 C 17.28125 -22.9375 15.773438 -22.519531 14.453125 -21.6875 C 13.140625 -20.863281 12.113281 -19.71875 11.375 -18.25 C 10.644531 -16.789062 10.28125 -15.109375 10.28125 -13.203125 C 10.28125 -11.179688 10.875 -9.582031 12.0625 -8.40625 C 13.257812 -7.238281 14.921875 -6.65625 17.046875 -6.65625 Z M 17.046875 -6.65625 "/></g></g></g><g fill="#000000" fill-opacity="1"><g transform="translate(243.908043, 374.704151)"><g><path d="M 16.5 0.4375 C 13.53125 0.4375 10.914062 -0.109375 8.65625 -1.203125 C 6.40625 -2.304688 4.664062 -3.859375 3.4375 -5.859375 C 2.207031 -7.859375 1.59375 -10.175781 1.59375 -12.8125 C 1.59375 -16.070312 2.363281 -19.003906 3.90625 -21.609375 C 5.445312 -24.210938 7.570312 -26.265625 10.28125 -27.765625 C 13 -29.273438 16.0625 -30.03125 19.46875 -30.03125 C 22.476562 -30.03125 25.097656 -29.476562 27.328125 -28.375 C 29.566406 -27.28125 31.300781 -25.734375 32.53125 -23.734375 C 33.757812 -21.734375 34.375 -19.414062 34.375 -16.78125 C 34.375 -13.507812 33.613281 -10.570312 32.09375 -7.96875 C 30.570312 -5.363281 28.441406 -3.3125 25.703125 -1.8125 C 22.972656 -0.3125 19.90625 0.4375 16.5 0.4375 Z M 17.046875 -6.65625 C 18.703125 -6.65625 20.1875 -7.066406 21.5 -7.890625 C 22.820312 -8.710938 23.847656 -9.859375 24.578125 -11.328125 C 25.316406 -12.796875 25.6875 -14.484375 25.6875 -16.390625 C 25.6875 -18.410156 25.097656 -20.003906 23.921875 -21.171875 C 22.753906 -22.347656 21.101562 -22.9375 18.96875 -22.9375 C 17.28125 -22.9375 15.773438 -22.519531 14.453125 -21.6875 C 13.140625 -20.863281 12.113281 -19.71875 11.375 -18.25 C 10.644531 -16.789062 10.28125 -15.109375 10.28125 -13.203125 C 10.28125 -11.179688 10.875 -9.582031 12.0625 -8.40625 C 13.257812 -7.238281 14.921875 -6.65625 17.046875 -6.65625 Z M 17.046875 -6.65625 "/></g></g></g><g fill="#000000" fill-opacity="1"><g transform="translate(279.875836, 374.704151)"><g><path d="M 11.828125 0.4375 C 9.253906 0.4375 6.820312 0.15625 4.53125 -0.40625 C 2.238281 -0.976562 0.453125 -1.722656 -0.828125 -2.640625 L 2.46875 -8.859375 C 3.757812 -8.015625 5.328125 -7.332031 7.171875 -6.8125 C 9.023438 -6.300781 10.890625 -6.046875 12.765625 -6.046875 C 14.703125 -6.046875 16.144531 -6.289062 17.09375 -6.78125 C 18.050781 -7.28125 18.53125 -7.988281 18.53125 -8.90625 C 18.53125 -9.644531 18.109375 -10.175781 17.265625 -10.5 C 16.421875 -10.832031 15.066406 -11.179688 13.203125 -11.546875 C 11.078125 -11.953125 9.328125 -12.390625 7.953125 -12.859375 C 6.578125 -13.335938 5.382812 -14.117188 4.375 -15.203125 C 3.363281 -16.285156 2.859375 -17.765625 2.859375 -19.640625 C 2.859375 -22.898438 4.222656 -25.445312 6.953125 -27.28125 C 9.691406 -29.113281 13.273438 -30.03125 17.703125 -30.03125 C 19.765625 -30.03125 21.765625 -29.804688 23.703125 -29.359375 C 25.648438 -28.921875 27.300781 -28.320312 28.65625 -27.5625 L 25.578125 -21.28125 C 23.148438 -22.789062 20.234375 -23.546875 16.828125 -23.546875 C 14.960938 -23.546875 13.539062 -23.269531 12.5625 -22.71875 C 11.59375 -22.164062 11.109375 -21.46875 11.109375 -20.625 C 11.109375 -19.851562 11.53125 -19.289062 12.375 -18.9375 C 13.21875 -18.59375 14.628906 -18.21875 16.609375 -17.8125 C 18.703125 -17.414062 20.414062 -16.988281 21.75 -16.53125 C 23.09375 -16.070312 24.257812 -15.3125 25.25 -14.25 C 26.238281 -13.1875 26.734375 -11.738281 26.734375 -9.90625 C 26.734375 -6.601562 25.347656 -4.050781 22.578125 -2.25 C 19.804688 -0.457031 16.222656 0.4375 11.828125 0.4375 Z M 11.828125 0.4375 "/></g></g></g><g fill="#000000" fill-opacity="1"><g transform="translate(309.079039, 374.704151)"><g><path d="M 33.171875 -17 C 33.171875 -15.632812 33.003906 -14.128906 32.671875 -12.484375 L 10.015625 -12.484375 C 10.304688 -8.453125 12.851562 -6.4375 17.65625 -6.4375 C 19.15625 -6.4375 20.59375 -6.671875 21.96875 -7.140625 C 23.34375 -7.617188 24.546875 -8.300781 25.578125 -9.1875 L 29.15625 -3.515625 C 27.5 -2.203125 25.609375 -1.210938 23.484375 -0.546875 C 21.359375 0.109375 19.125 0.4375 16.78125 0.4375 C 13.726562 0.4375 11.054688 -0.101562 8.765625 -1.1875 C 6.472656 -2.269531 4.710938 -3.816406 3.484375 -5.828125 C 2.265625 -7.847656 1.65625 -10.175781 1.65625 -12.8125 C 1.65625 -16.070312 2.394531 -19.015625 3.875 -21.640625 C 5.363281 -24.265625 7.425781 -26.316406 10.0625 -27.796875 C 12.707031 -29.285156 15.710938 -30.03125 19.078125 -30.03125 C 21.941406 -30.03125 24.425781 -29.5 26.53125 -28.4375 C 28.644531 -27.375 30.28125 -25.851562 31.4375 -23.875 C 32.59375 -21.894531 33.171875 -19.601562 33.171875 -17 Z M 18.703125 -23.59375 C 16.679688 -23.59375 14.972656 -23.050781 13.578125 -21.96875 C 12.191406 -20.882812 11.203125 -19.390625 10.609375 -17.484375 L 25.296875 -17.484375 C 25.296875 -19.390625 24.695312 -20.882812 23.5 -21.96875 C 22.3125 -23.050781 20.710938 -23.59375 18.703125 -23.59375 Z M 18.703125 -23.59375 "/></g></g></g><g fill="#000000" fill-opacity="1"><g transform="translate(343.616928, 374.704151)"><g/></g></g><g fill="#000000" fill-opacity="1"><g transform="translate(359.180978, 374.704151)"><g><path d="M 37.453125 -29.59375 L 32.5625 -4.953125 C 31.457031 0.617188 29.335938 4.6875 26.203125 7.25 C 23.066406 9.820312 18.878906 11.109375 13.640625 11.109375 C 10.773438 11.109375 8.140625 10.773438 5.734375 10.109375 C 3.335938 9.453125 1.28125 8.484375 -0.4375 7.203125 L 3.625 0.984375 C 4.800781 1.972656 6.3125 2.753906 8.15625 3.328125 C 10.007812 3.898438 11.96875 4.1875 14.03125 4.1875 C 16.925781 4.1875 19.125 3.550781 20.625 2.28125 C 22.125 1.019531 23.148438 -0.894531 23.703125 -3.46875 L 23.921875 -4.734375 C 21.535156 -2.535156 18.53125 -1.4375 14.90625 -1.4375 C 12.445312 -1.4375 10.226562 -1.9375 8.25 -2.9375 C 6.269531 -3.945312 4.703125 -5.382812 3.546875 -7.25 C 2.390625 -9.125 1.8125 -11.328125 1.8125 -13.859375 C 1.8125 -16.867188 2.523438 -19.597656 3.953125 -22.046875 C 5.390625 -24.503906 7.363281 -26.445312 9.875 -27.875 C 12.382812 -29.3125 15.195312 -30.03125 18.3125 -30.03125 C 20.625 -30.03125 22.648438 -29.597656 24.390625 -28.734375 C 26.128906 -27.867188 27.441406 -26.539062 28.328125 -24.75 L 29.265625 -29.59375 Z M 17.21875 -8.46875 C 19.707031 -8.46875 21.757812 -9.273438 23.375 -10.890625 C 24.988281 -12.503906 25.796875 -14.578125 25.796875 -17.109375 C 25.796875 -18.898438 25.207031 -20.316406 24.03125 -21.359375 C 22.863281 -22.410156 21.234375 -22.9375 19.140625 -22.9375 C 16.609375 -22.9375 14.523438 -22.128906 12.890625 -20.515625 C 11.265625 -18.898438 10.453125 -16.828125 10.453125 -14.296875 C 10.453125 -12.503906 11.054688 -11.082031 12.265625 -10.03125 C 13.472656 -8.988281 15.125 -8.46875 17.21875 -8.46875 Z M 17.21875 -8.46875 "/></g></g></g><g fill="#000000" fill-opacity="1"><g transform="translate(397.678613, 374.704151)"><g><path d="M 14.359375 -26.0625 C 15.640625 -27.457031 17.1875 -28.46875 19 -29.09375 C 20.8125 -29.71875 22.945312 -30.03125 25.40625 -30.03125 L 23.875 -22.109375 C 22.84375 -22.179688 22.179688 -22.21875 21.890625 -22.21875 C 19.285156 -22.21875 17.203125 -21.578125 15.640625 -20.296875 C 14.085938 -19.015625 13.035156 -17.015625 12.484375 -14.296875 L 9.625 0 L 1.046875 0 L 6.9375 -29.59375 L 15.0625 -29.59375 Z M 14.359375 -26.0625 "/></g></g></g><g fill="#000000" fill-opacity="1"><g transform="translate(421.382169, 374.704151)"><g><path d="M 16.5 0.4375 C 13.53125 0.4375 10.914062 -0.109375 8.65625 -1.203125 C 6.40625 -2.304688 4.664062 -3.859375 3.4375 -5.859375 C 2.207031 -7.859375 1.59375 -10.175781 1.59375 -12.8125 C 1.59375 -16.070312 2.363281 -19.003906 3.90625 -21.609375 C 5.445312 -24.210938 7.570312 -26.265625 10.28125 -27.765625 C 13 -29.273438 16.0625 -30.03125 19.46875 -30.03125 C 22.476562 -30.03125 25.097656 -29.476562 27.328125 -28.375 C 29.566406 -27.28125 31.300781 -25.734375 32.53125 -23.734375 C 33.757812 -21.734375 34.375 -19.414062 34.375 -16.78125 C 34.375 -13.507812 33.613281 -10.570312 32.09375 -7.96875 C 30.570312 -5.363281 28.441406 -3.3125 25.703125 -1.8125 C 22.972656 -0.3125 19.90625 0.4375 16.5 0.4375 Z M 17.046875 -6.65625 C 18.703125 -6.65625 20.1875 -7.066406 21.5 -7.890625 C 22.820312 -8.710938 23.847656 -9.859375 24.578125 -11.328125 C 25.316406 -12.796875 25.6875 -14.484375 25.6875 -16.390625 C 25.6875 -18.410156 25.097656 -20.003906 23.921875 -21.171875 C 22.753906 -22.347656 21.101562 -22.9375 18.96875 -22.9375 C 17.28125 -22.9375 15.773438 -22.519531 14.453125 -21.6875 C 13.140625 -20.863281 12.113281 -19.71875 11.375 -18.25 C 10.644531 -16.789062 10.28125 -15.109375 10.28125 -13.203125 C 10.28125 -11.179688 10.875 -9.582031 12.0625 -8.40625 C 13.257812 -7.238281 14.921875 -6.65625 17.046875 -6.65625 Z M 17.046875 -6.65625 "/></g></g></g><g fill="#000000" fill-opacity="1"><g transform="translate(457.349961, 374.704151)"><g><path d="M 54.828125 -29.59375 L 38.5 0 L 30.03125 0 L 26.625 -18.421875 L 16.4375 0 L 8.078125 0 L 2.859375 -29.59375 L 10.671875 -29.59375 L 13.921875 -9.6875 L 25.03125 -29.59375 L 32.390625 -29.59375 L 35.75 -9.6875 L 46.75 -29.59375 Z M 54.828125 -29.59375 "/></g></g></g><g fill="#000000" fill-opacity="1"><g transform="translate(509.101817, 374.704151)"><g><path d="M 12.703125 -10.453125 C 12.628906 -10.160156 12.59375 -9.753906 12.59375 -9.234375 C 12.59375 -7.328125 13.640625 -6.375 15.734375 -6.375 C 16.867188 -6.375 18.019531 -6.722656 19.1875 -7.421875 L 20.453125 -1.3125 C 18.546875 -0.144531 16.09375 0.4375 13.09375 0.4375 C 10.300781 0.4375 8.0625 -0.289062 6.375 -1.75 C 4.6875 -3.21875 3.84375 -5.238281 3.84375 -7.8125 C 3.84375 -8.539062 3.9375 -9.398438 4.125 -10.390625 L 6.484375 -22.328125 L 1.921875 -22.328125 L 3.25 -28.9375 L 7.8125 -28.9375 L 9.234375 -36.140625 L 17.8125 -36.140625 L 16.390625 -28.9375 L 23.765625 -28.9375 L 22.4375 -22.328125 L 15.0625 -22.328125 Z M 12.703125 -10.453125 "/></g></g></g><g fill="#000000" fill-opacity="1"><g transform="translate(533.025323, 374.704151)"><g><path d="M 24.140625 -30.03125 C 27.441406 -30.03125 30.0625 -29.148438 32 -27.390625 C 33.945312 -25.628906 34.921875 -23.132812 34.921875 -19.90625 C 34.921875 -18.738281 34.796875 -17.566406 34.546875 -16.390625 L 31.234375 0 L 22.65625 0 L 25.84375 -15.84375 C 25.988281 -16.46875 26.0625 -17.144531 26.0625 -17.875 C 26.0625 -19.414062 25.640625 -20.585938 24.796875 -21.390625 C 23.960938 -22.203125 22.703125 -22.609375 21.015625 -22.609375 C 18.804688 -22.609375 16.976562 -21.972656 15.53125 -20.703125 C 14.082031 -19.441406 13.101562 -17.546875 12.59375 -15.015625 L 9.625 0 L 1.046875 0 L 9.1875 -40.8125 L 17.765625 -40.8125 L 15.015625 -26.890625 C 17.546875 -28.984375 20.585938 -30.03125 24.140625 -30.03125 Z M 24.140625 -30.03125 "/></g></g></g><g fill="#000000" fill-opacity="1"><g transform="translate(571.027966, 374.704151)"><g><path d="M 4.953125 0.4375 C 3.484375 0.4375 2.269531 -0.0234375 1.3125 -0.953125 C 0.363281 -1.890625 -0.109375 -3.078125 -0.109375 -4.515625 C -0.109375 -6.203125 0.4375 -7.578125 1.53125 -8.640625 C 2.632812 -9.703125 3.992188 -10.234375 5.609375 -10.234375 C 7.078125 -10.234375 8.273438 -9.773438 9.203125 -8.859375 C 10.140625 -7.941406 10.609375 -6.75 10.609375 -5.28125 C 10.609375 -3.632812 10.050781 -2.269531 8.9375 -1.1875 C 7.820312 -0.101562 6.492188 0.4375 4.953125 0.4375 Z M 4.953125 0.4375 "/></g></g></g><g fill="#000000" fill-opacity="1"><g transform="translate(585.43707, 374.704151)"><g/></g></g><g fill="#000000" fill-opacity="1"><g transform="translate(601.001141, 374.704151)"><g><path d="M 21.828125 0.65625 C 17.984375 0.65625 14.617188 -0.0351562 11.734375 -1.421875 C 8.859375 -2.816406 6.648438 -4.78125 5.109375 -7.3125 C 3.578125 -9.84375 2.8125 -12.757812 2.8125 -16.0625 C 2.8125 -20.425781 3.804688 -24.359375 5.796875 -27.859375 C 7.796875 -31.359375 10.609375 -34.113281 14.234375 -36.125 C 17.867188 -38.144531 22.035156 -39.15625 26.734375 -39.15625 C 30.179688 -39.15625 33.222656 -38.566406 35.859375 -37.390625 C 38.492188 -36.222656 40.492188 -34.539062 41.859375 -32.34375 L 35.421875 -27.0625 C 33.367188 -30.0625 30.269531 -31.5625 26.125 -31.5625 C 23.300781 -31.5625 20.804688 -30.898438 18.640625 -29.578125 C 16.484375 -28.265625 14.804688 -26.472656 13.609375 -24.203125 C 12.421875 -21.929688 11.828125 -19.398438 11.828125 -16.609375 C 11.828125 -13.640625 12.769531 -11.285156 14.65625 -9.546875 C 16.539062 -7.804688 19.191406 -6.9375 22.609375 -6.9375 C 26.671875 -6.9375 30.078125 -8.421875 32.828125 -11.390625 L 38.109375 -6 C 34.296875 -1.5625 28.867188 0.65625 21.828125 0.65625 Z M 21.828125 0.65625 "/></g></g></g><g fill="#000000" fill-opacity="1"><g transform="translate(641.313677, 374.704151)"><g><path d="M 24.140625 -30.03125 C 27.441406 -30.03125 30.0625 -29.148438 32 -27.390625 C 33.945312 -25.628906 34.921875 -23.132812 34.921875 -19.90625 C 34.921875 -18.738281 34.796875 -17.566406 34.546875 -16.390625 L 31.234375 0 L 22.65625 0 L 25.84375 -15.84375 C 25.988281 -16.46875 26.0625 -17.144531 26.0625 -17.875 C 26.0625 -19.414062 25.640625 -20.585938 24.796875 -21.390625 C 23.960938 -22.203125 22.703125 -22.609375 21.015625 -22.609375 C 18.804688 -22.609375 16.976562 -21.972656 15.53125 -20.703125 C 14.082031 -19.441406 13.101562 -17.546875 12.59375 -15.015625 L 9.625 0 L 1.046875 0 L 9.1875 -40.8125 L 17.765625 -40.8125 L 15.015625 -26.890625 C 17.546875 -28.984375 20.585938 -30.03125 24.140625 -30.03125 Z M 24.140625 -30.03125 "/></g></g></g><g fill="#000000" fill-opacity="1"><g transform="translate(679.316362, 374.704151)"><g><path d="M 16.5 0.4375 C 13.53125 0.4375 10.914062 -0.109375 8.65625 -1.203125 C 6.40625 -2.304688 4.664062 -3.859375 3.4375 -5.859375 C 2.207031 -7.859375 1.59375 -10.175781 1.59375 -12.8125 C 1.59375 -16.070312 2.363281 -19.003906 3.90625 -21.609375 C 5.445312 -24.210938 7.570312 -26.265625 10.28125 -27.765625 C 13 -29.273438 16.0625 -30.03125 19.46875 -30.03125 C 22.476562 -30.03125 25.097656 -29.476562 27.328125 -28.375 C 29.566406 -27.28125 31.300781 -25.734375 32.53125 -23.734375 C 33.757812 -21.734375 34.375 -19.414062 34.375 -16.78125 C 34.375 -13.507812 33.613281 -10.570312 32.09375 -7.96875 C 30.570312 -5.363281 28.441406 -3.3125 25.703125 -1.8125 C 22.972656 -0.3125 19.90625 0.4375 16.5 0.4375 Z M 17.046875 -6.65625 C 18.703125 -6.65625 20.1875 -7.066406 21.5 -7.890625 C 22.820312 -8.710938 23.847656 -9.859375 24.578125 -11.328125 C 25.316406 -12.796875 25.6875 -14.484375 25.6875 -16.390625 C 25.6875 -18.410156 25.097656 -20.003906 23.921875 -21.171875 C 22.753906 -22.347656 21.101562 -22.9375 18.96875 -22.9375 C 17.28125 -22.9375 15.773438 -22.519531 14.453125 -21.6875 C 13.140625 -20.863281 12.113281 -19.71875 11.375 -18.25 C 10.644531 -16.789062 10.28125 -15.109375 10.28125 -13.203125 C 10.28125 -11.179688 10.875 -9.582031 12.0625 -8.40625 C 13.257812 -7.238281 14.921875 -6.65625 17.046875 -6.65625 Z M 17.046875 -6.65625 "/></g></g></g><g fill="#000000" fill-opacity="1"><g transform="translate(715.284155, 374.704151)"><g><path d="M 16.5 0.4375 C 13.53125 0.4375 10.914062 -0.109375 8.65625 -1.203125 C 6.40625 -2.304688 4.664062 -3.859375 3.4375 -5.859375 C 2.207031 -7.859375 1.59375 -10.175781 1.59375 -12.8125 C 1.59375 -16.070312 2.363281 -19.003906 3.90625 -21.609375 C 5.445312 -24.210938 7.570312 -26.265625 10.28125 -27.765625 C 13 -29.273438 16.0625 -30.03125 19.46875 -30.03125 C 22.476562 -30.03125 25.097656 -29.476562 27.328125 -28.375 C 29.566406 -27.28125 31.300781 -25.734375 32.53125 -23.734375 C 33.757812 -21.734375 34.375 -19.414062 34.375 -16.78125 C 34.375 -13.507812 33.613281 -10.570312 32.09375 -7.96875 C 30.570312 -5.363281 28.441406 -3.3125 25.703125 -1.8125 C 22.972656 -0.3125 19.90625 0.4375 16.5 0.4375 Z M 17.046875 -6.65625 C 18.703125 -6.65625 20.1875 -7.066406 21.5 -7.890625 C 22.820312 -8.710938 23.847656 -9.859375 24.578125 -11.328125 C 25.316406 -12.796875 25.6875 -14.484375 25.6875 -16.390625 C 25.6875 -18.410156 25.097656 -20.003906 23.921875 -21.171875 C 22.753906 -22.347656 21.101562 -22.9375 18.96875 -22.9375 C 17.28125 -22.9375 15.773438 -22.519531 14.453125 -21.6875 C 13.140625 -20.863281 12.113281 -19.71875 11.375 -18.25 C 10.644531 -16.789062 10.28125 -15.109375 10.28125 -13.203125 C 10.28125 -11.179688 10.875 -9.582031 12.0625 -8.40625 C 13.257812 -7.238281 14.921875 -6.65625 17.046875 -6.65625 Z M 17.046875 -6.65625 "/></g></g></g><g fill="#000000" fill-opacity="1"><g transform="translate(751.251948, 374.704151)"><g><path d="M 11.828125 0.4375 C 9.253906 0.4375 6.820312 0.15625 4.53125 -0.40625 C 2.238281 -0.976562 0.453125 -1.722656 -0.828125 -2.640625 L 2.46875 -8.859375 C 3.757812 -8.015625 5.328125 -7.332031 7.171875 -6.8125 C 9.023438 -6.300781 10.890625 -6.046875 12.765625 -6.046875 C 14.703125 -6.046875 16.144531 -6.289062 17.09375 -6.78125 C 18.050781 -7.28125 18.53125 -7.988281 18.53125 -8.90625 C 18.53125 -9.644531 18.109375 -10.175781 17.265625 -10.5 C 16.421875 -10.832031 15.066406 -11.179688 13.203125 -11.546875 C 11.078125 -11.953125 9.328125 -12.390625 7.953125 -12.859375 C 6.578125 -13.335938 5.382812 -14.117188 4.375 -15.203125 C 3.363281 -16.285156 2.859375 -17.765625 2.859375 -19.640625 C 2.859375 -22.898438 4.222656 -25.445312 6.953125 -27.28125 C 9.691406 -29.113281 13.273438 -30.03125 17.703125 -30.03125 C 19.765625 -30.03125 21.765625 -29.804688 23.703125 -29.359375 C 25.648438 -28.921875 27.300781 -28.320312 28.65625 -27.5625 L 25.578125 -21.28125 C 23.148438 -22.789062 20.234375 -23.546875 16.828125 -23.546875 C 14.960938 -23.546875 13.539062 -23.269531 12.5625 -22.71875 C 11.59375 -22.164062 11.109375 -21.46875 11.109375 -20.625 C 11.109375 -19.851562 11.53125 -19.289062 12.375 -18.9375 C 13.21875 -18.59375 14.628906 -18.21875 16.609375 -17.8125 C 18.703125 -17.414062 20.414062 -16.988281 21.75 -16.53125 C 23.09375 -16.070312 24.257812 -15.3125 25.25 -14.25 C 26.238281 -13.1875 26.734375 -11.738281 26.734375 -9.90625 C 26.734375 -6.601562 25.347656 -4.050781 22.578125 -2.25 C 19.804688 -0.457031 16.222656 0.4375 11.828125 0.4375 Z M 11.828125 0.4375 "/></g></g></g><g fill="#000000" fill-opacity="1"><g transform="translate(780.455172, 374.704151)"><g><path d="M 33.171875 -17 C 33.171875 -15.632812 33.003906 -14.128906 32.671875 -12.484375 L 10.015625 -12.484375 C 10.304688 -8.453125 12.851562 -6.4375 17.65625 -6.4375 C 19.15625 -6.4375 20.59375 -6.671875 21.96875 -7.140625 C 23.34375 -7.617188 24.546875 -8.300781 25.578125 -9.1875 L 29.15625 -3.515625 C 27.5 -2.203125 25.609375 -1.210938 23.484375 -0.546875 C 21.359375 0.109375 19.125 0.4375 16.78125 0.4375 C 13.726562 0.4375 11.054688 -0.101562 8.765625 -1.1875 C 6.472656 -2.269531 4.710938 -3.816406 3.484375 -5.828125 C 2.265625 -7.847656 1.65625 -10.175781 1.65625 -12.8125 C 1.65625 -16.070312 2.394531 -19.015625 3.875 -21.640625 C 5.363281 -24.265625 7.425781 -26.316406 10.0625 -27.796875 C 12.707031 -29.285156 15.710938 -30.03125 19.078125 -30.03125 C 21.941406 -30.03125 24.425781 -29.5 26.53125 -28.4375 C 28.644531 -27.375 30.28125 -25.851562 31.4375 -23.875 C 32.59375 -21.894531 33.171875 -19.601562 33.171875 -17 Z M 18.703125 -23.59375 C 16.679688 -23.59375 14.972656 -23.050781 13.578125 -21.96875 C 12.191406 -20.882812 11.203125 -19.390625 10.609375 -17.484375 L 25.296875 -17.484375 C 25.296875 -19.390625 24.695312 -20.882812 23.5 -21.96875 C 22.3125 -23.050781 20.710938 -23.59375 18.703125 -23.59375 Z M 18.703125 -23.59375 "/></g></g></g><g fill="#000000" fill-opacity="1"><g transform="translate(814.993081, 374.704151)"><g/></g></g><g fill="#000000" fill-opacity="1"><g transform="translate(830.557152, 374.704151)"><g><path d="M 6.9375 -29.59375 L 15.453125 -29.59375 L 9.5625 0 L 1.046875 0 Z M 12.65625 -33.71875 C 11.1875 -33.71875 9.984375 -34.144531 9.046875 -35 C 8.109375 -35.863281 7.640625 -36.921875 7.640625 -38.171875 C 7.640625 -39.640625 8.160156 -40.859375 9.203125 -41.828125 C 10.253906 -42.796875 11.625 -43.28125 13.3125 -43.28125 C 14.8125 -43.28125 16.03125 -42.867188 16.96875 -42.046875 C 17.90625 -41.222656 18.375 -40.207031 18.375 -39 C 18.375 -37.414062 17.84375 -36.140625 16.78125 -35.171875 C 15.71875 -34.203125 14.34375 -33.71875 12.65625 -33.71875 Z M 12.65625 -33.71875 "/></g></g><g transform="translate(847.056157, 374.704151)"><g><path d="M 44.0625 -30.03125 C 47.28125 -30.03125 49.84375 -29.160156 51.75 -27.421875 C 53.65625 -25.679688 54.609375 -23.210938 54.609375 -20.015625 C 54.609375 -18.847656 54.484375 -17.640625 54.234375 -16.390625 L 50.984375 0 L 42.40625 0 L 45.546875 -15.78125 C 45.691406 -16.519531 45.765625 -17.273438 45.765625 -18.046875 C 45.765625 -19.546875 45.367188 -20.679688 44.578125 -21.453125 C 43.785156 -22.222656 42.617188 -22.609375 41.078125 -22.609375 C 36.941406 -22.609375 34.359375 -20.132812 33.328125 -15.1875 L 30.3125 0 L 21.71875 0 L 24.859375 -15.78125 C 25.003906 -16.519531 25.078125 -17.253906 25.078125 -17.984375 C 25.078125 -19.484375 24.679688 -20.628906 23.890625 -21.421875 C 23.109375 -22.210938 21.945312 -22.609375 20.40625 -22.609375 C 16.257812 -22.609375 13.65625 -20.09375 12.59375 -15.0625 L 9.625 0 L 1.046875 0 L 6.9375 -29.59375 L 15.0625 -29.59375 L 14.40625 -26.515625 C 16.976562 -28.859375 20.078125 -30.03125 23.703125 -30.03125 C 25.753906 -30.03125 27.578125 -29.617188 29.171875 -28.796875 C 30.765625 -27.972656 31.96875 -26.769531 32.78125 -25.1875 C 34.207031 -26.769531 35.875 -27.972656 37.78125 -28.796875 C 39.6875 -29.617188 41.78125 -30.03125 44.0625 -30.03125 Z M 44.0625 -30.03125 "/></g></g></g><g fill="#000000" fill-opacity="1"><g transform="translate(904.747622, 374.704151)"><g><path d="M 23.546875 -30.03125 C 25.847656 -30.03125 27.976562 -29.5 29.9375 -28.4375 C 31.90625 -27.375 33.46875 -25.84375 34.625 -23.84375 C 35.78125 -21.84375 36.359375 -19.488281 36.359375 -16.78125 C 36.359375 -13.507812 35.632812 -10.5625 34.1875 -7.9375 C 32.738281 -5.320312 30.765625 -3.269531 28.265625 -1.78125 C 25.773438 -0.300781 23.007812 0.4375 19.96875 0.4375 C 15.457031 0.4375 12.265625 -1.023438 10.390625 -3.953125 L 7.484375 10.671875 L -1.09375 10.671875 L 6.9375 -29.59375 L 15.0625 -29.59375 L 14.46875 -26.671875 C 16.925781 -28.910156 19.953125 -30.03125 23.546875 -30.03125 Z M 18.96875 -6.65625 C 20.65625 -6.65625 22.160156 -7.066406 23.484375 -7.890625 C 24.804688 -8.710938 25.832031 -9.859375 26.5625 -11.328125 C 27.300781 -12.796875 27.671875 -14.484375 27.671875 -16.390625 C 27.671875 -18.410156 27.070312 -20.003906 25.875 -21.171875 C 24.6875 -22.347656 23.03125 -22.9375 20.90625 -22.9375 C 19.25 -22.9375 17.757812 -22.519531 16.4375 -21.6875 C 15.125 -20.863281 14.097656 -19.71875 13.359375 -18.25 C 12.628906 -16.789062 12.265625 -15.109375 12.265625 -13.203125 C 12.265625 -11.179688 12.847656 -9.582031 14.015625 -8.40625 C 15.191406 -7.238281 16.84375 -6.65625 18.96875 -6.65625 Z M 18.96875 -6.65625 "/></g></g></g><g fill="#000000" fill-opacity="1"><g transform="translate(942.6953, 374.704151)"><g><path d="M 36.953125 -29.59375 L 31.078125 0 L 22.9375 0 L 23.484375 -2.921875 C 21.023438 -0.679688 18 0.4375 14.40625 0.4375 C 12.09375 0.4375 9.960938 -0.09375 8.015625 -1.15625 C 6.078125 -2.21875 4.53125 -3.75 3.375 -5.75 C 2.226562 -7.75 1.65625 -10.101562 1.65625 -12.8125 C 1.65625 -16.070312 2.378906 -19.015625 3.828125 -21.640625 C 5.273438 -24.265625 7.242188 -26.316406 9.734375 -27.796875 C 12.222656 -29.285156 14.972656 -30.03125 17.984375 -30.03125 C 22.535156 -30.03125 25.742188 -28.546875 27.609375 -25.578125 L 28.375 -29.59375 Z M 17.046875 -6.65625 C 18.734375 -6.65625 20.238281 -7.066406 21.5625 -7.890625 C 22.882812 -8.710938 23.910156 -9.859375 24.640625 -11.328125 C 25.367188 -12.796875 25.734375 -14.484375 25.734375 -16.390625 C 25.734375 -18.410156 25.140625 -20.003906 23.953125 -21.171875 C 22.765625 -22.347656 21.101562 -22.9375 18.96875 -22.9375 C 17.28125 -22.9375 15.773438 -22.519531 14.453125 -21.6875 C 13.140625 -20.863281 12.113281 -19.71875 11.375 -18.25 C 10.644531 -16.789062 10.28125 -15.109375 10.28125 -13.203125 C 10.28125 -11.179688 10.875 -9.582031 12.0625 -8.40625 C 13.257812 -7.238281 14.921875 -6.65625 17.046875 -6.65625 Z M 17.046875 -6.65625 "/></g></g></g><g fill="#000000" fill-opacity="1"><g transform="translate(980.642977, 374.704151)"><g><path d="M 16.671875 0.4375 C 13.617188 0.4375 10.957031 -0.109375 8.6875 -1.203125 C 6.414062 -2.304688 4.664062 -3.859375 3.4375 -5.859375 C 2.207031 -7.859375 1.59375 -10.175781 1.59375 -12.8125 C 1.59375 -16.070312 2.363281 -19.003906 3.90625 -21.609375 C 5.445312 -24.210938 7.59375 -26.265625 10.34375 -27.765625 C 13.09375 -29.273438 16.191406 -30.03125 19.640625 -30.03125 C 22.785156 -30.03125 25.503906 -29.378906 27.796875 -28.078125 C 30.085938 -26.773438 31.800781 -24.929688 32.9375 -22.546875 L 25.6875 -18.921875 C 24.40625 -21.597656 22.203125 -22.9375 19.078125 -22.9375 C 17.398438 -22.9375 15.890625 -22.519531 14.546875 -21.6875 C 13.210938 -20.863281 12.164062 -19.71875 11.40625 -18.25 C 10.65625 -16.789062 10.28125 -15.125 10.28125 -13.25 C 10.28125 -11.238281 10.882812 -9.632812 12.09375 -8.4375 C 13.3125 -7.25 15 -6.65625 17.15625 -6.65625 C 20.3125 -6.65625 22.734375 -7.972656 24.421875 -10.609375 L 30.75 -6.65625 C 29.3125 -4.414062 27.351562 -2.671875 24.875 -1.421875 C 22.40625 -0.179688 19.671875 0.4375 16.671875 0.4375 Z M 16.671875 0.4375 "/></g></g></g><g fill="#000000" fill-opacity="1"><g transform="translate(1013.146036, 374.704151)"><g><path d="M 12.703125 -10.453125 C 12.628906 -10.160156 12.59375 -9.753906 12.59375 -9.234375 C 12.59375 -7.328125 13.640625 -6.375 15.734375 -6.375 C 16.867188 -6.375 18.019531 -6.722656 19.1875 -7.421875 L 20.453125 -1.3125 C 18.546875 -0.144531 16.09375 0.4375 13.09375 0.4375 C 10.300781 0.4375 8.0625 -0.289062 6.375 -1.75 C 4.6875 -3.21875 3.84375 -5.238281 3.84375 -7.8125 C 3.84375 -8.539062 3.9375 -9.398438 4.125 -10.390625 L 6.484375 -22.328125 L 1.921875 -22.328125 L 3.25 -28.9375 L 7.8125 -28.9375 L 9.234375 -36.140625 L 17.8125 -36.140625 L 16.390625 -28.9375 L 23.765625 -28.9375 L 22.4375 -22.328125 L 15.0625 -22.328125 Z M 12.703125 -10.453125 "/></g></g></g><g fill="#000000" fill-opacity="1"><g transform="translate(1037.069542, 374.704151)"><g><path d="M 4.953125 0.4375 C 3.484375 0.4375 2.269531 -0.0234375 1.3125 -0.953125 C 0.363281 -1.890625 -0.109375 -3.078125 -0.109375 -4.515625 C -0.109375 -6.203125 0.4375 -7.578125 1.53125 -8.640625 C 2.632812 -9.703125 3.992188 -10.234375 5.609375 -10.234375 C 7.078125 -10.234375 8.273438 -9.773438 9.203125 -8.859375 C 10.140625 -7.941406 10.609375 -6.75 10.609375 -5.28125 C 10.609375 -3.632812 10.050781 -2.269531 8.9375 -1.1875 C 7.820312 -0.101562 6.492188 0.4375 4.953125 0.4375 Z M 4.953125 0.4375 "/></g></g></g><g fill="#000000" fill-opacity="1"><g transform="translate(1051.478646, 374.704151)"><g/></g></g><g fill="#000000" fill-opacity="1"><g transform="translate(1067.042717, 374.704151)"><g><path d="M 21.828125 0.65625 C 17.984375 0.65625 14.617188 -0.0351562 11.734375 -1.421875 C 8.859375 -2.816406 6.648438 -4.78125 5.109375 -7.3125 C 3.578125 -9.84375 2.8125 -12.757812 2.8125 -16.0625 C 2.8125 -20.425781 3.804688 -24.359375 5.796875 -27.859375 C 7.796875 -31.359375 10.609375 -34.113281 14.234375 -36.125 C 17.867188 -38.144531 22.035156 -39.15625 26.734375 -39.15625 C 30.179688 -39.15625 33.222656 -38.566406 35.859375 -37.390625 C 38.492188 -36.222656 40.492188 -34.539062 41.859375 -32.34375 L 35.421875 -27.0625 C 33.367188 -30.0625 30.269531 -31.5625 26.125 -31.5625 C 23.300781 -31.5625 20.804688 -30.898438 18.640625 -29.578125 C 16.484375 -28.265625 14.804688 -26.472656 13.609375 -24.203125 C 12.421875 -21.929688 11.828125 -19.398438 11.828125 -16.609375 C 11.828125 -13.640625 12.769531 -11.285156 14.65625 -9.546875 C 16.539062 -7.804688 19.191406 -6.9375 22.609375 -6.9375 C 26.671875 -6.9375 30.078125 -8.421875 32.828125 -11.390625 L 38.109375 -6 C 34.296875 -1.5625 28.867188 0.65625 21.828125 0.65625 Z M 21.828125 0.65625 "/></g></g></g><g fill="#000000" fill-opacity="1"><g transform="translate(1107.35521, 374.704151)"><g><path d="M 24.140625 -30.03125 C 27.441406 -30.03125 30.0625 -29.148438 32 -27.390625 C 33.945312 -25.628906 34.921875 -23.132812 34.921875 -19.90625 C 34.921875 -18.738281 34.796875 -17.566406 34.546875 -16.390625 L 31.234375 0 L 22.65625 0 L 25.84375 -15.84375 C 25.988281 -16.46875 26.0625 -17.144531 26.0625 -17.875 C 26.0625 -19.414062 25.640625 -20.585938 24.796875 -21.390625 C 23.960938 -22.203125 22.703125 -22.609375 21.015625 -22.609375 C 18.804688 -22.609375 16.976562 -21.972656 15.53125 -20.703125 C 14.082031 -19.441406 13.101562 -17.546875 12.59375 -15.015625 L 9.625 0 L 1.046875 0 L 9.1875 -40.8125 L 17.765625 -40.8125 L 15.015625 -26.890625 C 17.546875 -28.984375 20.585938 -30.03125 24.140625 -30.03125 Z M 24.140625 -30.03125 "/></g></g></g><g fill="#000000" fill-opacity="1"><g transform="translate(1145.357854, 374.704151)"><g><path d="M 16.5 0.4375 C 13.53125 0.4375 10.914062 -0.109375 8.65625 -1.203125 C 6.40625 -2.304688 4.664062 -3.859375 3.4375 -5.859375 C 2.207031 -7.859375 1.59375 -10.175781 1.59375 -12.8125 C 1.59375 -16.070312 2.363281 -19.003906 3.90625 -21.609375 C 5.445312 -24.210938 7.570312 -26.265625 10.28125 -27.765625 C 13 -29.273438 16.0625 -30.03125 19.46875 -30.03125 C 22.476562 -30.03125 25.097656 -29.476562 27.328125 -28.375 C 29.566406 -27.28125 31.300781 -25.734375 32.53125 -23.734375 C 33.757812 -21.734375 34.375 -19.414062 34.375 -16.78125 C 34.375 -13.507812 33.613281 -10.570312 32.09375 -7.96875 C 30.570312 -5.363281 28.441406 -3.3125 25.703125 -1.8125 C 22.972656 -0.3125 19.90625 0.4375 16.5 0.4375 Z M 17.046875 -6.65625 C 18.703125 -6.65625 20.1875 -7.066406 21.5 -7.890625 C 22.820312 -8.710938 23.847656 -9.859375 24.578125 -11.328125 C 25.316406 -12.796875 25.6875 -14.484375 25.6875 -16.390625 C 25.6875 -18.410156 25.097656 -20.003906 23.921875 -21.171875 C 22.753906 -22.347656 21.101562 -22.9375 18.96875 -22.9375 C 17.28125 -22.9375 15.773438 -22.519531 14.453125 -21.6875 C 13.140625 -20.863281 12.113281 -19.71875 11.375 -18.25 C 10.644531 -16.789062 10.28125 -15.109375 10.28125 -13.203125 C 10.28125 -11.179688 10.875 -9.582031 12.0625 -8.40625 C 13.257812 -7.238281 14.921875 -6.65625 17.046875 -6.65625 Z M 17.046875 -6.65625 "/></g></g></g><g fill="#000000" fill-opacity="1"><g transform="translate(1181.325647, 374.704151)"><g><path d="M 16.5 0.4375 C 13.53125 0.4375 10.914062 -0.109375 8.65625 -1.203125 C 6.40625 -2.304688 4.664062 -3.859375 3.4375 -5.859375 C 2.207031 -7.859375 1.59375 -10.175781 1.59375 -12.8125 C 1.59375 -16.070312 2.363281 -19.003906 3.90625 -21.609375 C 5.445312 -24.210938 7.570312 -26.265625 10.28125 -27.765625 C 13 -29.273438 16.0625 -30.03125 19.46875 -30.03125 C 22.476562 -30.03125 25.097656 -29.476562 27.328125 -28.375 C 29.566406 -27.28125 31.300781 -25.734375 32.53125 -23.734375 C 33.757812 -21.734375 34.375 -19.414062 34.375 -16.78125 C 34.375 -13.507812 33.613281 -10.570312 32.09375 -7.96875 C 30.570312 -5.363281 28.441406 -3.3125 25.703125 -1.8125 C 22.972656 -0.3125 19.90625 0.4375 16.5 0.4375 Z M 17.046875 -6.65625 C 18.703125 -6.65625 20.1875 -7.066406 21.5 -7.890625 C 22.820312 -8.710938 23.847656 -9.859375 24.578125 -11.328125 C 25.316406 -12.796875 25.6875 -14.484375 25.6875 -16.390625 C 25.6875 -18.410156 25.097656 -20.003906 23.921875 -21.171875 C 22.753906 -22.347656 21.101562 -22.9375 18.96875 -22.9375 C 17.28125 -22.9375 15.773438 -22.519531 14.453125 -21.6875 C 13.140625 -20.863281 12.113281 -19.71875 11.375 -18.25 C 10.644531 -16.789062 10.28125 -15.109375 10.28125 -13.203125 C 10.28125 -11.179688 10.875 -9.582031 12.0625 -8.40625 C 13.257812 -7.238281 14.921875 -6.65625 17.046875 -6.65625 Z M 17.046875 -6.65625 "/></g></g></g><g fill="#000000" fill-opacity="1"><g transform="translate(1217.29344, 374.704151)"><g><path d="M 11.828125 0.4375 C 9.253906 0.4375 6.820312 0.15625 4.53125 -0.40625 C 2.238281 -0.976562 0.453125 -1.722656 -0.828125 -2.640625 L 2.46875 -8.859375 C 3.757812 -8.015625 5.328125 -7.332031 7.171875 -6.8125 C 9.023438 -6.300781 10.890625 -6.046875 12.765625 -6.046875 C 14.703125 -6.046875 16.144531 -6.289062 17.09375 -6.78125 C 18.050781 -7.28125 18.53125 -7.988281 18.53125 -8.90625 C 18.53125 -9.644531 18.109375 -10.175781 17.265625 -10.5 C 16.421875 -10.832031 15.066406 -11.179688 13.203125 -11.546875 C 11.078125 -11.953125 9.328125 -12.390625 7.953125 -12.859375 C 6.578125 -13.335938 5.382812 -14.117188 4.375 -15.203125 C 3.363281 -16.285156 2.859375 -17.765625 2.859375 -19.640625 C 2.859375 -22.898438 4.222656 -25.445312 6.953125 -27.28125 C 9.691406 -29.113281 13.273438 -30.03125 17.703125 -30.03125 C 19.765625 -30.03125 21.765625 -29.804688 23.703125 -29.359375 C 25.648438 -28.921875 27.300781 -28.320312 28.65625 -27.5625 L 25.578125 -21.28125 C 23.148438 -22.789062 20.234375 -23.546875 16.828125 -23.546875 C 14.960938 -23.546875 13.539062 -23.269531 12.5625 -22.71875 C 11.59375 -22.164062 11.109375 -21.46875 11.109375 -20.625 C 11.109375 -19.851562 11.53125 -19.289062 12.375 -18.9375 C 13.21875 -18.59375 14.628906 -18.21875 16.609375 -17.8125 C 18.703125 -17.414062 20.414062 -16.988281 21.75 -16.53125 C 23.09375 -16.070312 24.257812 -15.3125 25.25 -14.25 C 26.238281 -13.1875 26.734375 -11.738281 26.734375 -9.90625 C 26.734375 -6.601562 25.347656 -4.050781 22.578125 -2.25 C 19.804688 -0.457031 16.222656 0.4375 11.828125 0.4375 Z M 11.828125 0.4375 "/></g></g></g><g fill="#000000" fill-opacity="1"><g transform="translate(1246.496664, 374.704151)"><g><path d="M 33.171875 -17 C 33.171875 -15.632812 33.003906 -14.128906 32.671875 -12.484375 L 10.015625 -12.484375 C 10.304688 -8.453125 12.851562 -6.4375 17.65625 -6.4375 C 19.15625 -6.4375 20.59375 -6.671875 21.96875 -7.140625 C 23.34375 -7.617188 24.546875 -8.300781 25.578125 -9.1875 L 29.15625 -3.515625 C 27.5 -2.203125 25.609375 -1.210938 23.484375 -0.546875 C 21.359375 0.109375 19.125 0.4375 16.78125 0.4375 C 13.726562 0.4375 11.054688 -0.101562 8.765625 -1.1875 C 6.472656 -2.269531 4.710938 -3.816406 3.484375 -5.828125 C 2.265625 -7.847656 1.65625 -10.175781 1.65625 -12.8125 C 1.65625 -16.070312 2.394531 -19.015625 3.875 -21.640625 C 5.363281 -24.265625 7.425781 -26.316406 10.0625 -27.796875 C 12.707031 -29.285156 15.710938 -30.03125 19.078125 -30.03125 C 21.941406 -30.03125 24.425781 -29.5 26.53125 -28.4375 C 28.644531 -27.375 30.28125 -25.851562 31.4375 -23.875 C 32.59375 -21.894531 33.171875 -19.601562 33.171875 -17 Z M 18.703125 -23.59375 C 16.679688 -23.59375 14.972656 -23.050781 13.578125 -21.96875 C 12.191406 -20.882812 11.203125 -19.390625 10.609375 -17.484375 L 25.296875 -17.484375 C 25.296875 -19.390625 24.695312 -20.882812 23.5 -21.96875 C 22.3125 -23.050781 20.710938 -23.59375 18.703125 -23.59375 Z M 18.703125 -23.59375 "/></g></g></g><g fill="#000000" fill-opacity="1"><g transform="translate(1281.034573, 374.704151)"><g/></g></g><g fill="#000000" fill-opacity="1"><g transform="translate(1296.598644, 374.704151)"><g><path d="M 36.734375 -29.59375 L 30.859375 0 L 22.71875 0 L 23.3125 -3.1875 C 22.03125 -1.976562 20.5625 -1.070312 18.90625 -0.46875 C 17.257812 0.132812 15.519531 0.4375 13.6875 0.4375 C 10.46875 0.4375 7.894531 -0.441406 5.96875 -2.203125 C 4.039062 -3.960938 3.078125 -6.4375 3.078125 -9.625 C 3.078125 -10.832031 3.207031 -12.023438 3.46875 -13.203125 L 6.703125 -29.59375 L 15.296875 -29.59375 L 12.15625 -13.75 C 12.007812 -13.050781 11.9375 -12.335938 11.9375 -11.609375 C 11.9375 -8.523438 13.585938 -6.984375 16.890625 -6.984375 C 19.046875 -6.984375 20.828125 -7.613281 22.234375 -8.875 C 23.648438 -10.144531 24.617188 -12.046875 25.140625 -14.578125 L 28.15625 -29.59375 Z M 36.734375 -29.59375 "/></g></g></g><g fill="#000000" fill-opacity="1"><g transform="translate(1334.381337, 374.704151)"><g><path d="M 11.828125 0.4375 C 9.253906 0.4375 6.820312 0.15625 4.53125 -0.40625 C 2.238281 -0.976562 0.453125 -1.722656 -0.828125 -2.640625 L 2.46875 -8.859375 C 3.757812 -8.015625 5.328125 -7.332031 7.171875 -6.8125 C 9.023438 -6.300781 10.890625 -6.046875 12.765625 -6.046875 C 14.703125 -6.046875 16.144531 -6.289062 17.09375 -6.78125 C 18.050781 -7.28125 18.53125 -7.988281 18.53125 -8.90625 C 18.53125 -9.644531 18.109375 -10.175781 17.265625 -10.5 C 16.421875 -10.832031 15.066406 -11.179688 13.203125 -11.546875 C 11.078125 -11.953125 9.328125 -12.390625 7.953125 -12.859375 C 6.578125 -13.335938 5.382812 -14.117188 4.375 -15.203125 C 3.363281 -16.285156 2.859375 -17.765625 2.859375 -19.640625 C 2.859375 -22.898438 4.222656 -25.445312 6.953125 -27.28125 C 9.691406 -29.113281 13.273438 -30.03125 17.703125 -30.03125 C 19.765625 -30.03125 21.765625 -29.804688 23.703125 -29.359375 C 25.648438 -28.921875 27.300781 -28.320312 28.65625 -27.5625 L 25.578125 -21.28125 C 23.148438 -22.789062 20.234375 -23.546875 16.828125 -23.546875 C 14.960938 -23.546875 13.539062 -23.269531 12.5625 -22.71875 C 11.59375 -22.164062 11.109375 -21.46875 11.109375 -20.625 C 11.109375 -19.851562 11.53125 -19.289062 12.375 -18.9375 C 13.21875 -18.59375 14.628906 -18.21875 16.609375 -17.8125 C 18.703125 -17.414062 20.414062 -16.988281 21.75 -16.53125 C 23.09375 -16.070312 24.257812 -15.3125 25.25 -14.25 C 26.238281 -13.1875 26.734375 -11.738281 26.734375 -9.90625 C 26.734375 -6.601562 25.347656 -4.050781 22.578125 -2.25 C 19.804688 -0.457031 16.222656 0.4375 11.828125 0.4375 Z M 11.828125 0.4375 "/></g></g></g></svg>