<?xml version="1.0" encoding="utf-8"?>
<!-- Generator: Adobe Illustrator 26.4.1, SVG Export Plug-In . SVG Version: 6.00 Build 0)  -->
<svg version="1.1" xmlns="http://www.w3.org/2000/svg" xmlns:xlink="http://www.w3.org/1999/xlink" x="0px" y="0px"
	 viewBox="0 0 1080 1080" style="enable-background:new 0 0 1080 1080;" xml:space="preserve">
<style type="text/css">
	.st0{fill:url(#SVGID_1_);}
	.st1{fill:url(#SVGID_00000023274097742970188010000013632015099275511477_);}
	.st2{fill:url(#SVGID_00000154418624848939835850000003255411952171223993_);}
	.st3{fill:url(#SVGID_00000105394611239068219240000002477534752223787195_);}
	.st4{fill:url(#SVGID_00000011012304179401865010000015976977563251380864_);}
	.st5{fill:url(#SVGID_00000093140464184517105150000001784050436195461011_);}
	.st6{fill:url(#SVGID_00000086687588793191220630000009758583050191832450_);}
</style>
<g id="Layer_4">
	<path d="M578,348.13h-75.56c-4.28,0-8.37,1.79-11.27,4.94l-28.91,31.38c-2.61,2.83-4.05,6.54-4.05,10.38v67.38
		c0,3.95,1.53,7.75,4.26,10.6l27.3,28.5c2.89,3.02,6.89,4.72,11.07,4.72h73.91c8.44,0,15.29,6.82,15.33,15.26l0.19,42.09
		c0.02,4.02-1.54,7.88-4.34,10.76l-11.43,11.74c-2.92,3-6.94,4.68-11.12,4.64l-47.55-0.44c-4.12-0.04-8.05-1.73-10.91-4.71
		l-11.86-12.34c-2.77-2.89-4.31-6.75-4.27-10.75l0.09-10.81c0.07-8.56-6.89-15.53-15.45-15.46h0c-8.41,0.07-15.2,6.91-15.2,15.32
		v24.85c0,3.97,1.54,7.79,4.3,10.65l28.69,29.69c2.89,2.99,6.87,4.68,11.02,4.68h75.73c4.3,0,8.41-1.81,11.31-4.99l28.51-31.19
		c2.58-2.82,4.01-6.51,4.01-10.34V394.26c0-3.86-1.45-7.57-4.07-10.4l-28.47-30.8C586.36,349.92,582.28,348.13,578,348.13z
		 M574.96,476.39h-58.61c-4.29,0-8.39-1.8-11.3-4.97l-9.21-10.05c-2.59-2.83-4.03-6.52-4.03-10.36v-46.01
		c0-3.89,1.48-7.64,4.14-10.48l9.11-9.73c2.9-3.09,6.95-4.85,11.18-4.85h46.97c4.12,0,8.06,1.66,10.94,4.59l11.74,11.96
		c2.81,2.87,4.38,6.72,4.38,10.73v53.83C590.29,469.53,583.43,476.39,574.96,476.39z"/>
</g>
<g id="Layer_3">
	<g>
		<path d="M665.76,701.74H414.24c-50.35,0-91.31-40.96-91.31-91.31V358.92c0-50.35,40.96-91.31,91.31-91.31h251.51
			c50.35,0,91.31,40.96,91.31,91.31v251.51C757.07,660.78,716.11,701.74,665.76,701.74z M414.24,284.92
			c-40.8,0-73.99,33.19-73.99,73.99v251.51c0,40.8,33.19,73.99,73.99,73.99h251.51c40.8,0,73.99-33.19,73.99-73.99V358.92
			c0-40.8-33.19-73.99-73.99-73.99H414.24z"/>
	</g>
</g>
<g id="Layer_2">
	<g>
		<g>
			<linearGradient id="SVGID_1_" gradientUnits="userSpaceOnUse" x1="365.8259" y1="777.4216" x2="411.8188" y2="777.4216">
				<stop  offset="0" style="stop-color:#A87A2C"/>
				<stop  offset="0.2851" style="stop-color:#D5A546"/>
				<stop  offset="0.5335" style="stop-color:#DFBD86"/>
				<stop  offset="0.7926" style="stop-color:#F8D477"/>
				<stop  offset="1" style="stop-color:#966C29"/>
			</linearGradient>
			<path class="st0" d="M366.54,763.42c0.47-4.32,1.51-8.03,3.12-11.12c1.61-3.09,3.93-5.5,6.96-7.24c3.03-1.73,7.1-2.6,12.21-2.6
				c5.11,0,9.18,0.87,12.21,2.6c3.03,1.74,5.35,4.15,6.96,7.24c1.61,3.09,2.65,6.8,3.12,11.12c0.47,4.32,0.71,9.04,0.71,14.15
				c0,5.17-0.24,9.91-0.71,14.2c-0.47,4.29-1.51,7.98-3.12,11.07c-1.61,3.09-3.93,5.46-6.96,7.1c-3.03,1.64-7.1,2.46-12.21,2.46
				c-5.11,0-9.18-0.82-12.21-2.46c-3.03-1.64-5.35-4.01-6.96-7.1c-1.61-3.09-2.65-6.78-3.12-11.07c-0.47-4.29-0.71-9.02-0.71-14.2
				C365.83,772.45,366.06,767.74,366.54,763.42z M379.78,789.16c0.22,3.19,0.66,5.77,1.32,7.76c0.66,1.99,1.61,3.44,2.84,4.35
				c1.23,0.92,2.85,1.37,4.87,1.37c2.02,0,3.64-0.46,4.87-1.37c1.23-0.91,2.18-2.37,2.84-4.35c0.66-1.99,1.1-4.57,1.32-7.76
				c0.22-3.19,0.33-7.05,0.33-11.59c0-4.54-0.11-8.39-0.33-11.55c-0.22-3.15-0.66-5.74-1.32-7.76c-0.66-2.02-1.61-3.49-2.84-4.4
				c-1.23-0.91-2.86-1.37-4.87-1.37c-2.02,0-3.64,0.46-4.87,1.37c-1.23,0.92-2.18,2.38-2.84,4.4c-0.66,2.02-1.1,4.61-1.32,7.76
				c-0.22,3.16-0.33,7-0.33,11.55C379.45,782.11,379.56,785.97,379.78,789.16z"/>
			
				<linearGradient id="SVGID_00000142166238076983261410000005329767694015082162_" gradientUnits="userSpaceOnUse" x1="421.5662" y1="777.4216" x2="466.0449" y2="777.4216">
				<stop  offset="0" style="stop-color:#A87A2C"/>
				<stop  offset="0.2851" style="stop-color:#D5A546"/>
				<stop  offset="0.5335" style="stop-color:#DFBD86"/>
				<stop  offset="0.7926" style="stop-color:#F8D477"/>
				<stop  offset="1" style="stop-color:#966C29"/>
			</linearGradient>
			<path style="fill:url(#SVGID_00000142166238076983261410000005329767694015082162_);" d="M450.1,755.84
				c-1.17-2.24-3.3-3.36-6.39-3.36c-1.7,0-3.11,0.46-4.21,1.37c-1.1,0.92-1.97,2.4-2.6,4.45c-0.63,2.05-1.07,4.73-1.32,8.04
				c-0.25,3.31-0.38,7.37-0.38,12.16c0,5.11,0.17,9.24,0.52,12.4c0.35,3.16,0.88,5.6,1.61,7.33c0.72,1.74,1.64,2.9,2.74,3.5
				c1.1,0.6,2.38,0.9,3.83,0.9c1.2,0,2.32-0.2,3.36-0.62c1.04-0.41,1.94-1.23,2.7-2.46c0.76-1.23,1.36-2.96,1.8-5.21
				c0.44-2.24,0.66-5.19,0.66-8.85h13.63c0,3.66-0.28,7.13-0.85,10.41c-0.57,3.28-1.62,6.15-3.17,8.61
				c-1.55,2.46-3.72,4.39-6.53,5.77c-2.81,1.39-6.45,2.08-10.93,2.08c-5.11,0-9.18-0.82-12.21-2.46c-3.03-1.64-5.35-4.01-6.96-7.1
				c-1.61-3.09-2.65-6.78-3.12-11.07c-0.47-4.29-0.71-9.02-0.71-14.2c0-5.11,0.24-9.83,0.71-14.15c0.47-4.32,1.51-8.03,3.12-11.12
				c1.61-3.09,3.93-5.5,6.96-7.24c3.03-1.73,7.1-2.6,12.21-2.6c4.86,0,8.69,0.79,11.5,2.37c2.81,1.58,4.9,3.58,6.29,6.01
				c1.39,2.43,2.26,5.05,2.6,7.85c0.35,2.81,0.52,5.44,0.52,7.9h-13.63C451.85,761.66,451.27,758.09,450.1,755.84z"/>
			
				<linearGradient id="SVGID_00000023257196034162959610000018074982481098984832_" gradientUnits="userSpaceOnUse" x1="476.9267" y1="777.5636" x2="515.6326" y2="777.5636">
				<stop  offset="0" style="stop-color:#A87A2C"/>
				<stop  offset="0.2851" style="stop-color:#D5A546"/>
				<stop  offset="0.5335" style="stop-color:#DFBD86"/>
				<stop  offset="0.7926" style="stop-color:#F8D477"/>
				<stop  offset="1" style="stop-color:#966C29"/>
			</linearGradient>
			<path style="fill:url(#SVGID_00000023257196034162959610000018074982481098984832_);" d="M514.69,754.95h-24.13v15.9h22.71v11.17
				h-22.71v18.17h25.08v11.17h-38.71v-67.57h37.76V754.95z"/>
			
				<linearGradient id="SVGID_00000105390058396502513100000009575633495971537293_" gradientUnits="userSpaceOnUse" x1="520.8364" y1="777.5636" x2="573.4537" y2="777.5636">
				<stop  offset="0" style="stop-color:#A87A2C"/>
				<stop  offset="0.2851" style="stop-color:#D5A546"/>
				<stop  offset="0.5335" style="stop-color:#DFBD86"/>
				<stop  offset="0.7926" style="stop-color:#F8D477"/>
				<stop  offset="1" style="stop-color:#966C29"/>
			</linearGradient>
			<path style="fill:url(#SVGID_00000105390058396502513100000009575633495971537293_);" d="M555.57,743.78l17.89,67.57h-14.2
				l-3.12-14.29h-17.98l-3.12,14.29h-14.2l17.89-67.57H555.57z M553.77,785.89l-6.53-30.38h-0.19l-6.53,30.38H553.77z"/>
			
				<linearGradient id="SVGID_00000092454376458262874520000010111116586226295453_" gradientUnits="userSpaceOnUse" x1="581.3083" y1="777.5636" x2="626.1656" y2="777.5636">
				<stop  offset="0" style="stop-color:#A87A2C"/>
				<stop  offset="0.2851" style="stop-color:#D5A546"/>
				<stop  offset="0.5335" style="stop-color:#DFBD86"/>
				<stop  offset="0.7926" style="stop-color:#F8D477"/>
				<stop  offset="1" style="stop-color:#966C29"/>
			</linearGradient>
			<path style="fill:url(#SVGID_00000092454376458262874520000010111116586226295453_);" d="M613.48,790.06h0.19v-46.28h12.49v67.57
				h-15.52l-16.66-47.32h-0.19v47.32h-12.49v-67.57h15.71L613.48,790.06z"/>
			
				<linearGradient id="SVGID_00000014594520604519371920000015803535424990681515_" gradientUnits="userSpaceOnUse" x1="639.4135" y1="777.5636" x2="653.0411" y2="777.5636">
				<stop  offset="0" style="stop-color:#A87A2C"/>
				<stop  offset="0.2851" style="stop-color:#D5A546"/>
				<stop  offset="0.5335" style="stop-color:#DFBD86"/>
				<stop  offset="0.7926" style="stop-color:#F8D477"/>
				<stop  offset="1" style="stop-color:#966C29"/>
			</linearGradient>
			<path style="fill:url(#SVGID_00000014594520604519371920000015803535424990681515_);" d="M639.41,743.78h13.63v67.57h-13.63
				V743.78z"/>
			
				<linearGradient id="SVGID_00000038414831643429572040000010785720689646108863_" gradientUnits="userSpaceOnUse" x1="661.5578" y1="777.5636" x2="714.1749" y2="777.5636">
				<stop  offset="0" style="stop-color:#A87A2C"/>
				<stop  offset="0.2851" style="stop-color:#D5A546"/>
				<stop  offset="0.5335" style="stop-color:#DFBD86"/>
				<stop  offset="0.7926" style="stop-color:#F8D477"/>
				<stop  offset="1" style="stop-color:#966C29"/>
			</linearGradient>
			<path style="fill:url(#SVGID_00000038414831643429572040000010785720689646108863_);" d="M696.29,743.78l17.89,67.57h-14.2
				l-3.12-14.29h-17.98l-3.12,14.29h-14.2l17.89-67.57H696.29z M694.49,785.89l-6.53-30.38h-0.19l-6.53,30.38H694.49z"/>
		</g>
		<g>
			<path d="M366.54,763.42c0.47-4.32,1.51-8.03,3.12-11.12c1.61-3.09,3.93-5.5,6.96-7.24c3.03-1.73,7.1-2.6,12.21-2.6
				c5.11,0,9.18,0.87,12.21,2.6c3.03,1.74,5.35,4.15,6.96,7.24c1.61,3.09,2.65,6.8,3.12,11.12c0.47,4.32,0.71,9.04,0.71,14.15
				c0,5.17-0.24,9.91-0.71,14.2c-0.47,4.29-1.51,7.98-3.12,11.07c-1.61,3.09-3.93,5.46-6.96,7.1c-3.03,1.64-7.1,2.46-12.21,2.46
				c-5.11,0-9.18-0.82-12.21-2.46c-3.03-1.64-5.35-4.01-6.96-7.1c-1.61-3.09-2.65-6.78-3.12-11.07c-0.47-4.29-0.71-9.02-0.71-14.2
				C365.83,772.45,366.06,767.74,366.54,763.42z M379.78,789.16c0.22,3.19,0.66,5.77,1.32,7.76c0.66,1.99,1.61,3.44,2.84,4.35
				c1.23,0.92,2.85,1.37,4.87,1.37c2.02,0,3.64-0.46,4.87-1.37c1.23-0.91,2.18-2.37,2.84-4.35c0.66-1.99,1.1-4.57,1.32-7.76
				c0.22-3.19,0.33-7.05,0.33-11.59c0-4.54-0.11-8.39-0.33-11.55c-0.22-3.15-0.66-5.74-1.32-7.76c-0.66-2.02-1.61-3.49-2.84-4.4
				c-1.23-0.91-2.86-1.37-4.87-1.37c-2.02,0-3.64,0.46-4.87,1.37c-1.23,0.92-2.18,2.38-2.84,4.4c-0.66,2.02-1.1,4.61-1.32,7.76
				c-0.22,3.16-0.33,7-0.33,11.55C379.45,782.11,379.56,785.97,379.78,789.16z"/>
			<path d="M450.1,755.84c-1.17-2.24-3.3-3.36-6.39-3.36c-1.7,0-3.11,0.46-4.21,1.37c-1.1,0.92-1.97,2.4-2.6,4.45
				c-0.63,2.05-1.07,4.73-1.32,8.04c-0.25,3.31-0.38,7.37-0.38,12.16c0,5.11,0.17,9.24,0.52,12.4c0.35,3.16,0.88,5.6,1.61,7.33
				c0.72,1.74,1.64,2.9,2.74,3.5c1.1,0.6,2.38,0.9,3.83,0.9c1.2,0,2.32-0.2,3.36-0.62c1.04-0.41,1.94-1.23,2.7-2.46
				c0.76-1.23,1.36-2.96,1.8-5.21c0.44-2.24,0.66-5.19,0.66-8.85h13.63c0,3.66-0.28,7.13-0.85,10.41c-0.57,3.28-1.62,6.15-3.17,8.61
				c-1.55,2.46-3.72,4.39-6.53,5.77c-2.81,1.39-6.45,2.08-10.93,2.08c-5.11,0-9.18-0.82-12.21-2.46c-3.03-1.64-5.35-4.01-6.96-7.1
				c-1.61-3.09-2.65-6.78-3.12-11.07c-0.47-4.29-0.71-9.02-0.71-14.2c0-5.11,0.24-9.83,0.71-14.15c0.47-4.32,1.51-8.03,3.12-11.12
				c1.61-3.09,3.93-5.5,6.96-7.24c3.03-1.73,7.1-2.6,12.21-2.6c4.86,0,8.69,0.79,11.5,2.37c2.81,1.58,4.9,3.58,6.29,6.01
				c1.39,2.43,2.26,5.05,2.6,7.85c0.35,2.81,0.52,5.44,0.52,7.9h-13.63C451.85,761.66,451.27,758.09,450.1,755.84z"/>
			<path d="M514.69,754.95h-24.13v15.9h22.71v11.17h-22.71v18.17h25.08v11.17h-38.71v-67.57h37.76V754.95z"/>
			<path d="M555.57,743.78l17.89,67.57h-14.2l-3.12-14.29h-17.98l-3.12,14.29h-14.2l17.89-67.57H555.57z M553.77,785.89l-6.53-30.38
				h-0.19l-6.53,30.38H553.77z"/>
			<path d="M613.48,790.06h0.19v-46.28h12.49v67.57h-15.52l-16.66-47.32h-0.19v47.32h-12.49v-67.57h15.71L613.48,790.06z"/>
			<path d="M639.41,743.78h13.63v67.57h-13.63V743.78z"/>
			<path d="M696.29,743.78l17.89,67.57h-14.2l-3.12-14.29h-17.98l-3.12,14.29h-14.2l17.89-67.57H696.29z M694.49,785.89l-6.53-30.38
				h-0.19l-6.53,30.38H694.49z"/>
		</g>
	</g>
</g>
</svg>
